<svg width="67" height="31" viewBox="0 0 67 31" fill="none" xmlns="http://www.w3.org/2000/svg">
<path d="M15.0902 11.625C16.628 11.625 18.1052 12.0549 19.3766 12.8299H26L27 15.3354L19.3766 21.367V26.7859V31H7.75228V20.4467L4.50715 25.9322C3.82906 27.0826 2.33969 27.4641 1.18936 26.7859C0.0390296 26.1078 -0.342395 24.6184 0.335693 23.468L4.94911 15.6695C6.43243 13.1629 9.12662 11.625 12.0388 11.625H15.0902ZM18.408 4.84375C18.408 7.51992 16.2405 9.6875 13.5645 9.6875C10.8884 9.6875 8.72098 7.51992 8.72098 4.84375C8.72098 2.16758 10.8884 0 13.5645 0C16.2405 0 18.408 2.16758 18.408 4.84375Z" fill="black"/>
<path d="M57.9999 14.0279C58.0086 14.6736 57.482 15.2092 56.8298 15.2181L48.2095 15.3354C47.8113 16.0453 47.0467 16.5254 46.1721 16.5373L38.0706 16.6476L38.4793 17.8162L42.6301 17.7597C43.2823 17.7509 43.8231 18.2719 43.8318 18.9176L43.8476 20.0916C43.8563 20.7373 43.3297 21.2729 42.6774 21.2818L36.4142 21.367C35.9028 21.374 35.4463 21.0573 35.2768 20.5825L33.9199 16.7041L31.9408 16.731L31.9882 20.253C31.9969 20.8987 31.4703 21.4343 30.8181 21.4432L29.6321 21.4593C28.9799 21.4682 28.4391 20.9471 28.4304 20.3014L28.387 17.0729L21.5831 18.8535C20.8369 19.0471 20.1031 18.4993 20.0928 17.7362L20.0341 13.3704C20.0254 12.7247 20.552 12.1891 21.2042 12.1803L28.3199 12.0834L28.3041 10.9094C28.2866 9.61067 29.3324 8.54698 30.6444 8.52912L41.3178 8.38386C42.6297 8.366 43.7038 9.40084 43.7213 10.6996L46.0931 10.6673C46.9678 10.6554 47.7449 11.1145 48.1621 11.8134L55.5964 11.7122C55.5878 11.0665 56.1143 10.5309 56.7666 10.522C57.4188 10.5132 57.9596 11.0342 57.9683 11.6799L57.9999 14.0279Z" fill="black"/>
<path d="M59.8125 11.8726C59.8729 11.3294 60.6342 10.6077 60.9407 10.195C61.3221 9.68156 61.6493 9.21573 62.1082 8.78233C62.3761 8.52923 62.6487 8.34419 62.9028 8.07598C63.1599 7.80462 63.5564 7.26357 63.874 7.10474" stroke="black" stroke-linecap="round"/>
<path d="M60.0781 14.4332C60.6236 15.5242 61.4631 16.5032 62.0647 17.5676C62.271 17.9325 62.5923 18.3056 62.8594 18.6321C63.0285 18.8388 63.0251 19.2618 63.2567 19.3777" stroke="black" stroke-linecap="round"/>
<path d="M61.5791 13.9917C61.6438 14.2828 62.3799 14.4757 62.5847 14.649C62.816 14.8448 63.0375 15.0087 63.2567 15.2278" stroke="black" stroke-linecap="round"/>
<path d="M61.1377 12.0492C61.2444 11.7291 62.1336 11.5328 62.4131 11.4312C62.6924 11.3296 63.0022 11.2053 63.2568 11.078" stroke="black" stroke-linecap="round"/>
<path d="M62.8154 12.7556H65.994" stroke="black" stroke-linecap="round"/>
</svg>
