<svg width="46" height="71" viewBox="0 0 46 71" fill="none" xmlns="http://www.w3.org/2000/svg">
<rect width="46" height="71" rx="13" fill="#4B4B4B"/>
<path d="M25.3409 27.7273H30.2045V43.9545C30.2045 45.4545 29.8674 46.7576 29.1932 47.8636C28.5265 48.9697 27.5985 49.822 26.4091 50.4205C25.2197 51.0189 23.8371 51.3182 22.2614 51.3182C20.8598 51.3182 19.5871 51.072 18.4432 50.5795C17.3068 50.0795 16.4053 49.322 15.7386 48.3068C15.072 47.2841 14.7424 46 14.75 44.4545H19.6477C19.6629 45.0682 19.7879 45.5947 20.0227 46.0341C20.2652 46.4659 20.5947 46.7992 21.0114 47.0341C21.4356 47.2614 21.9356 47.375 22.5114 47.375C23.1174 47.375 23.6288 47.2462 24.0455 46.9886C24.4697 46.7235 24.7917 46.3371 25.0114 45.8295C25.2311 45.322 25.3409 44.697 25.3409 43.9545V27.7273Z" fill="white"/>
</svg>
