<svg width="46" height="71" viewBox="0 0 46 71" fill="none" xmlns="http://www.w3.org/2000/svg">
<rect width="46" height="71" rx="13" fill="#4B4B4B"/>
<path d="M20.8068 41.9091H24.9886L27.0909 44.6136L29.1591 47.0227L33.0568 51.9091H28.4659L25.7841 48.6136L24.4091 46.6591L20.8068 41.9091ZM33.4091 38.3636C33.4091 40.9015 32.928 43.0606 31.9659 44.8409C31.0114 46.6212 29.7083 47.9811 28.0568 48.9205C26.4129 49.8523 24.5644 50.3182 22.5114 50.3182C20.4432 50.3182 18.5871 49.8485 16.9432 48.9091C15.2992 47.9697 14 46.6098 13.0455 44.8295C12.0909 43.0492 11.6136 40.8939 11.6136 38.3636C11.6136 35.8258 12.0909 33.6667 13.0455 31.8864C14 30.1061 15.2992 28.75 16.9432 27.8182C18.5871 26.8788 20.4432 26.4091 22.5114 26.4091C24.5644 26.4091 26.4129 26.8788 28.0568 27.8182C29.7083 28.75 31.0114 30.1061 31.9659 31.8864C32.928 33.6667 33.4091 35.8258 33.4091 38.3636ZM28.4205 38.3636C28.4205 36.7197 28.1742 35.3333 27.6818 34.2045C27.197 33.0758 26.5114 32.2197 25.625 31.6364C24.7386 31.053 23.7008 30.7614 22.5114 30.7614C21.322 30.7614 20.2841 31.053 19.3977 31.6364C18.5114 32.2197 17.822 33.0758 17.3295 34.2045C16.8447 35.3333 16.6023 36.7197 16.6023 38.3636C16.6023 40.0076 16.8447 41.3939 17.3295 42.5227C17.822 43.6515 18.5114 44.5076 19.3977 45.0909C20.2841 45.6742 21.322 45.9659 22.5114 45.9659C23.7008 45.9659 24.7386 45.6742 25.625 45.0909C26.5114 44.5076 27.197 43.6515 27.6818 42.5227C28.1742 41.3939 28.4205 40.0076 28.4205 38.3636Z" fill="white"/>
</svg>
