<svg width="47" height="47" viewBox="0 0 47 47" fill="none" xmlns="http://www.w3.org/2000/svg">
<path
        d="M32.2244 14.5994C32.6382 14.2054 33.1888 13.9876 33.7602 13.992C34.3315 13.9963 34.8788 14.2224 35.2866 14.6226C35.6943 15.0227 35.9307 15.5657 35.9458 16.1368C35.9609 16.7079 35.7536 17.2626 35.3675 17.6838L23.6469 32.3419C23.4453 32.559 23.2021 32.7332 22.9317 32.8541C22.6613 32.975 22.3693 33.0402 22.0731 33.0456C21.777 33.0511 21.4827 32.9968 21.208 32.886C20.9333 32.7752 20.6838 32.6101 20.4744 32.4006L12.7017 24.628C12.4853 24.4263 12.3117 24.1831 12.1913 23.9128C12.0709 23.6426 12.0061 23.3509 12.0009 23.055C11.9957 22.7592 12.0501 22.4654 12.1609 22.1911C12.2717 21.9167 12.4366 21.6675 12.6458 21.4583C12.855 21.2491 13.1042 21.0842 13.3786 20.9734C13.6529 20.8626 13.9467 20.8082 14.2425 20.8134C14.5383 20.8186 14.8301 20.8834 15.1003 21.0038C15.3706 21.1242 15.6138 21.2978 15.8155 21.5143L21.9666 27.6624L32.1686 14.664C32.1869 14.6414 32.2065 14.6198 32.2273 14.5994H32.2244Z" fill="white"/>
</svg>
