<svg width="998" height="270" viewBox="0 0 998 270" fill="none" xmlns="http://www.w3.org/2000/svg">
<path d="M191.705 53.0672L189.455 50.3172H191.142L188.892 47.5672H190.017L187.205 44.2672L184.392 47.5672H185.517L183.267 50.3172H184.955L182.705 53.0672H186.642V55.2672H187.767V53.0672H191.705Z" fill="black"/>
<path d="M200.705 47.0672L198.455 44.3172H200.142L197.892 41.5672H199.017L196.205 38.2672L193.392 41.5672H194.517L192.267 44.3172H193.955L191.705 47.0672H195.642V49.2672H196.767V47.0672H200.705Z" fill="black"/>
<path d="M581.705 22.0672L579.455 19.3172H581.142L578.892 16.5672H580.017L577.205 13.2672L574.392 16.5672H575.517L573.267 19.3172H574.955L572.705 22.0672H576.642V24.2672H577.767V22.0672H581.705Z" fill="black"/>
<path d="M568.705 15.0672L566.455 12.3172H568.142L565.892 9.56715H567.017L564.205 6.26715L561.392 9.56715H562.517L560.267 12.3172H561.955L559.705 15.0672H563.642V17.2672H564.767V15.0672H568.705Z" fill="black"/>
<path d="M577.705 11.0672L575.455 8.31715H577.142L574.892 5.56715H576.017L573.205 2.26715L570.392 5.56715H571.517L569.267 8.31715H570.955L568.705 11.0672H572.642V13.2672H573.767V11.0672H577.705Z" fill="black"/>
<path d="M758.705 22.0672L756.455 19.3172H758.143L755.893 16.5672H757.018L754.205 13.2672L751.393 16.5672H752.518L750.268 19.3172H751.955L749.705 22.0672H753.643V24.2672H754.768V22.0672H758.705Z" fill="black"/>
<path d="M770.705 14.0672L768.455 11.3172H770.143L767.893 8.56715H769.018L766.205 5.26715L763.393 8.56715H764.518L762.268 11.3172H763.955L761.705 14.0672H765.643V16.2672H766.768V14.0672H770.705Z" fill="black"/>
<path d="M767.705 29.0672L765.455 26.3172H767.143L764.893 23.5672H766.018L763.205 20.2672L760.393 23.5672H761.518L759.268 26.3172H760.955L758.705 29.0672H762.643V31.2672H763.768V29.0672H767.705Z" fill="black"/>
<path d="M790.705 15.0672L788.455 12.3172H790.143L787.893 9.56715H789.018L786.205 6.26715L783.393 9.56715H784.518L782.268 12.3172H783.955L781.705 15.0672H785.643V17.2672H786.768V15.0672H790.705Z" fill="black"/>
<path d="M800.705 14.0672L798.455 11.3172H800.143L797.893 8.56715H799.018L796.205 5.26715L793.393 8.56715H794.518L792.268 11.3172H793.955L791.705 14.0672H795.643V16.2672H796.768V14.0672H800.705Z" fill="black"/>
<path d="M807.705 19.0672L805.455 16.3172H807.143L804.893 13.5672H806.018L803.205 10.2672L800.393 13.5672H801.518L799.268 16.3172H800.955L798.705 19.0672H802.643V21.2672H803.768V19.0672H807.705Z" fill="black"/>
<path d="M868.705 71.0672L866.455 68.3172H868.143L865.893 65.5672H867.018L864.205 62.2672L861.393 65.5672H862.518L860.268 68.3172H861.955L859.705 71.0672H863.643V73.2672H864.768V71.0672H868.705Z" fill="black"/>
<path d="M880.705 63.0672L878.455 60.3172H880.143L877.893 57.5672H879.018L876.205 54.2672L873.393 57.5672H874.518L872.268 60.3172H873.955L871.705 63.0672H875.643V65.2672H876.768V63.0672H880.705Z" fill="black"/>
<path d="M870.705 52.0672L868.455 49.3172H870.143L867.893 46.5672H869.018L866.205 43.2672L863.393 46.5672H864.518L862.268 49.3172H863.955L861.705 52.0672H865.643V54.2672H866.768V52.0672H870.705Z" fill="black"/>
<path d="M892.705 39.0672L890.455 36.3172H892.143L889.893 33.5672H891.018L888.205 30.2672L885.393 33.5672H886.518L884.268 36.3172H885.955L883.705 39.0672H887.643V41.2672H888.768V39.0672H892.705Z" fill="black"/>
<path d="M904.705 31.0672L902.455 28.3172H904.143L901.893 25.5672H903.018L900.205 22.2672L897.393 25.5672H898.518L896.268 28.3172H897.955L895.705 31.0672H899.643V33.2672H900.768V31.0672H904.705Z" fill="black"/>
<path d="M941.705 65.0672L939.455 62.3172H941.143L938.893 59.5672H940.018L937.205 56.2672L934.393 59.5672H935.518L933.268 62.3172H934.955L932.705 65.0672H936.643V67.2672H937.768V65.0672H941.705Z" fill="black"/>
<path d="M954.705 64.0672L952.455 61.3172H954.143L951.893 58.5672H953.018L950.205 55.2672L947.393 58.5672H948.518L946.268 61.3172H947.955L945.705 64.0672H949.643V66.2672H950.768V64.0672H954.705Z" fill="black"/>
<path d="M961.705 76.0672L959.455 73.3172H961.143L958.893 70.5672H960.018L957.205 67.2672L954.393 70.5672H955.518L953.268 73.3172H954.955L952.705 76.0672H956.643V78.2672H957.768V76.0672H961.705Z" fill="black"/>
<path d="M964.705 134.067L962.455 131.317H964.143L961.893 128.567H963.018L960.205 125.267L957.393 128.567H958.518L956.268 131.317H957.955L955.705 134.067H959.643V136.267H960.768V134.067H964.705Z" fill="black"/>
<path d="M975.705 136.067L973.455 133.317H975.143L972.893 130.567H974.018L971.205 127.267L968.393 130.567H969.518L967.268 133.317H968.955L966.705 136.067H970.643V138.267H971.768V136.067H975.705Z" fill="black"/>
<path d="M968.705 147.067L966.455 144.317H968.143L965.893 141.567H967.018L964.205 138.267L961.393 141.567H962.518L960.268 144.317H961.955L959.705 147.067H963.643V149.267H964.768V147.067H968.705Z" fill="black"/>
<path d="M977.705 153.067L975.455 150.317H977.143L974.893 147.567H976.018L973.205 144.267L970.393 147.567H971.518L969.268 150.317H970.955L968.705 153.067H972.643V155.267H973.768V153.067H977.705Z" fill="black"/>
<path d="M984.705 131.067L982.455 128.317H984.143L981.893 125.567H983.018L980.205 122.267L977.393 125.567H978.518L976.268 128.317H977.955L975.705 131.067H979.643V133.267H980.768V131.067H984.705Z" fill="black"/>
<path d="M191.705 41.0672L189.455 38.3172H191.142L188.892 35.5672H190.017L187.205 32.2672L184.392 35.5672H185.517L183.267 38.3172H184.955L182.705 41.0672H186.642V43.2672H187.767V41.0672H191.705Z" fill="black"/>
<path d="M182.705 35.0672L180.455 32.3172H182.142L179.892 29.5672H181.017L178.205 26.2672L175.392 29.5672H176.517L174.267 32.3172H175.955L173.705 35.0672H177.642V37.2672H178.767V35.0672H182.705Z" fill="black"/>
<path d="M212.705 10.0672L210.455 7.31715H212.142L209.892 4.56715H211.017L208.205 1.26715L205.392 4.56715H206.517L204.267 7.31715H205.955L203.705 10.0672H207.642V12.2672H208.767V10.0672H212.705Z" fill="black"/>
<path d="M221.705 15.0672L219.455 12.3172H221.142L218.892 9.56715H220.017L217.205 6.26715L214.392 9.56715H215.517L213.267 12.3172H214.955L212.705 15.0672H216.642V17.2672H217.767V15.0672H221.705Z" fill="black"/>
<path d="M197.705 16.0672L195.455 13.3172H197.142L194.892 10.5672H196.017L193.205 7.26715L190.392 10.5672H191.517L189.267 13.3172H190.955L188.705 16.0672H192.642V18.2672H193.767V16.0672H197.705Z" fill="black"/>
<path d="M86.7046 20.0672L84.4546 17.3172H86.1421L83.8921 14.5672H85.0171L82.2046 11.2672L79.3921 14.5672H80.5171L78.2671 17.3172H79.9546L77.7046 20.0672H81.6421V22.2672H82.7671V20.0672H86.7046Z" fill="black"/>
<path d="M98.7046 21.0672L96.4546 18.3172H98.1421L95.8921 15.5672H97.0171L94.2046 12.2672L91.3921 15.5672H92.5171L90.2671 18.3172H91.9546L89.7046 21.0672H93.6421V23.2672H94.7671V21.0672H98.7046Z" fill="black"/>
<path d="M92.7046 32.0672L90.4546 29.3172H92.1421L89.8921 26.5672H91.0171L88.2046 23.2672L85.3921 26.5672H86.5171L84.2671 29.3172H85.9546L83.7046 32.0672H87.6421V34.2672H88.7671V32.0672H92.7046Z" fill="black"/>
<path d="M114.705 123.067L112.455 120.317H114.142L111.892 117.567H113.017L110.205 114.267L107.392 117.567H108.517L106.267 120.317H107.955L105.705 123.067H109.642V125.267H110.767V123.067H114.705Z" fill="black"/>
<path d="M123.705 115.067L121.455 112.317H123.142L120.892 109.567H122.017L119.205 106.267L116.392 109.567H117.517L115.267 112.317H116.955L114.705 115.067H118.642V117.267H119.767V115.067H123.705Z" fill="black"/>
<path d="M126.705 130.067L124.455 127.317H126.142L123.892 124.567H125.017L122.205 121.267L119.392 124.567H120.517L118.267 127.317H119.955L117.705 130.067H121.642V132.267H122.767V130.067H126.705Z" fill="black"/>
<path d="M135.705 131.067L133.455 128.317H135.142L132.892 125.567H134.017L131.205 122.267L128.392 125.567H129.517L127.267 128.317H128.955L126.705 131.067H130.642V133.267H131.767V131.067H135.705Z" fill="black"/>
<path d="M244.138 177.267C243.591 177.269 243.085 177.378 242.838 177.453C242.838 177.453 245.078 177.825 245.265 179.335C243.562 176.938 241.705 179.837 241.705 179.837C242.092 179.738 243.201 179.443 243.941 179.567C244.448 179.652 244.942 180.101 244.92 180.095C243.713 180.385 241.795 185.632 242.121 186.058C242.411 186.383 242.702 186.272 242.992 186.107C243.136 184.995 244.258 180.117 245.631 180.511C245.631 180.511 245.631 180.511 245.631 180.511C245.747 180.549 245.856 180.617 245.862 180.721C245.874 180.918 245.743 181.24 245.774 181.464C245.845 181.983 245.95 182.164 246.101 182.345C246.463 182.147 246.809 181.431 246.881 181.06C247.205 181.198 247.726 181.519 248.151 182.712C248.374 181.594 248.053 180.713 247.001 180.322C247.457 180.129 249.44 181.102 249.682 181.645C249.918 180.667 248.252 179.47 246.864 179.534C247.13 179.466 247.423 179.545 247.701 179.345C248.074 179.077 248.509 178.846 248.915 178.598C247.551 178.018 246.292 178.304 246.204 178.904C246.134 177.573 245.076 177.263 244.138 177.267Z" fill="black"/>
<path d="M261.138 177.267C260.591 177.269 260.085 177.378 259.838 177.453C259.838 177.453 262.078 177.825 262.265 179.335C260.562 176.938 258.705 179.837 258.705 179.837C259.092 179.738 260.201 179.443 260.941 179.567C261.448 179.652 261.942 180.101 261.92 180.095C260.713 180.385 258.795 185.632 259.121 186.058C259.411 186.383 259.702 186.272 259.992 186.107C260.136 184.995 261.258 180.117 262.631 180.511C262.631 180.511 262.631 180.511 262.631 180.511C262.747 180.549 262.856 180.617 262.862 180.721C262.874 180.918 262.743 181.24 262.774 181.464C262.845 181.983 262.95 182.164 263.101 182.345C263.463 182.147 263.809 181.431 263.881 181.06C264.205 181.198 264.726 181.519 265.151 182.712C265.374 181.594 265.053 180.713 264.001 180.322C264.457 180.129 266.44 181.102 266.682 181.645C266.918 180.667 265.252 179.47 263.864 179.534C264.13 179.466 264.423 179.545 264.701 179.345C265.074 179.077 265.509 178.846 265.915 178.598C264.551 178.018 263.292 178.304 263.204 178.904C263.134 177.573 262.076 177.263 261.138 177.267Z" fill="black"/>
<path d="M252.138 183.267C251.591 183.269 251.085 183.378 250.838 183.453C250.838 183.453 253.078 183.825 253.265 185.335C251.562 182.938 249.705 185.837 249.705 185.837C250.092 185.738 251.201 185.443 251.941 185.567C252.448 185.652 252.942 186.101 252.92 186.095C251.713 186.385 249.795 191.632 250.121 192.058C250.411 192.383 250.702 192.272 250.992 192.107C251.136 190.995 252.258 186.117 253.631 186.511C253.631 186.511 253.631 186.511 253.631 186.511C253.747 186.549 253.856 186.617 253.862 186.721C253.874 186.918 253.743 187.24 253.774 187.464C253.845 187.983 253.95 188.164 254.101 188.345C254.463 188.147 254.809 187.431 254.881 187.06C255.205 187.198 255.726 187.519 256.151 188.712C256.374 187.594 256.053 186.713 255.001 186.322C255.457 186.129 257.44 187.102 257.682 187.645C257.918 186.667 256.252 185.47 254.864 185.534C255.13 185.466 255.423 185.545 255.701 185.345C256.074 185.077 256.509 184.846 256.915 184.598C255.551 184.018 254.292 184.304 254.204 184.904C254.134 183.573 253.076 183.263 252.138 183.267Z" fill="black"/>
<path d="M294.138 178.267C293.591 178.269 293.085 178.378 292.838 178.453C292.838 178.453 295.078 178.825 295.265 180.335C293.562 177.938 291.705 180.837 291.705 180.837C292.092 180.738 293.201 180.443 293.941 180.567C294.448 180.652 294.942 181.101 294.92 181.095C293.713 181.385 291.795 186.632 292.121 187.058C292.411 187.383 292.702 187.272 292.992 187.107C293.136 185.995 294.258 181.117 295.631 181.511C295.631 181.511 295.631 181.511 295.631 181.511C295.747 181.549 295.856 181.617 295.862 181.721C295.874 181.918 295.743 182.24 295.774 182.464C295.845 182.983 295.95 183.164 296.101 183.345C296.463 183.147 296.809 182.431 296.881 182.06C297.205 182.198 297.726 182.519 298.151 183.712C298.374 182.594 298.053 181.713 297.001 181.322C297.457 181.129 299.44 182.102 299.682 182.645C299.918 181.667 298.252 180.47 296.864 180.534C297.13 180.466 297.423 180.545 297.701 180.345C298.074 180.077 298.509 179.846 298.915 179.598C297.551 179.018 296.292 179.304 296.204 179.904C296.134 178.573 295.076 178.263 294.138 178.267Z" fill="black"/>
<path d="M281.138 186.267C280.591 186.269 280.085 186.378 279.838 186.453C279.838 186.453 282.078 186.825 282.265 188.335C280.562 185.938 278.705 188.837 278.705 188.837C279.092 188.738 280.201 188.443 280.941 188.567C281.448 188.652 281.942 189.101 281.92 189.095C280.713 189.385 278.795 194.632 279.121 195.058C279.411 195.383 279.702 195.272 279.992 195.107C280.136 193.995 281.258 189.117 282.631 189.511C282.631 189.511 282.631 189.511 282.631 189.511C282.747 189.549 282.856 189.617 282.862 189.721C282.874 189.918 282.743 190.24 282.774 190.464C282.845 190.983 282.95 191.164 283.101 191.345C283.463 191.147 283.809 190.431 283.881 190.06C284.205 190.198 284.726 190.519 285.151 191.712C285.374 190.594 285.053 189.713 284.001 189.322C284.457 189.129 286.44 190.102 286.682 190.645C286.918 189.667 285.252 188.47 283.864 188.534C284.13 188.466 284.423 188.545 284.701 188.345C285.074 188.077 285.509 187.846 285.915 187.598C284.551 187.018 283.292 187.304 283.204 187.904C283.134 186.573 282.076 186.263 281.138 186.267Z" fill="black"/>
<path d="M329.138 205.267C328.591 205.269 328.085 205.378 327.838 205.453C327.838 205.453 330.078 205.825 330.265 207.335C328.562 204.938 326.705 207.837 326.705 207.837C327.092 207.738 328.201 207.443 328.941 207.567C329.448 207.652 329.942 208.101 329.92 208.095C328.713 208.385 326.795 213.632 327.121 214.058C327.411 214.383 327.702 214.272 327.992 214.107C328.136 212.995 329.258 208.117 330.631 208.511C330.631 208.511 330.631 208.511 330.631 208.511C330.747 208.549 330.856 208.617 330.862 208.721C330.874 208.918 330.743 209.24 330.774 209.464C330.845 209.983 330.95 210.164 331.101 210.345C331.463 210.147 331.809 209.431 331.881 209.06C332.205 209.198 332.726 209.519 333.151 210.712C333.374 209.594 333.053 208.713 332.001 208.322C332.457 208.129 334.44 209.102 334.682 209.645C334.918 208.667 333.252 207.47 331.864 207.534C332.13 207.466 332.423 207.545 332.701 207.345C333.074 207.077 333.509 206.846 333.915 206.598C332.551 206.018 331.292 206.304 331.204 206.904C331.134 205.573 330.076 205.263 329.138 205.267Z" fill="black"/>
<path d="M562.138 172.267C561.591 172.269 561.085 172.378 560.838 172.453C560.838 172.453 563.078 172.825 563.265 174.335C561.562 171.938 559.705 174.837 559.705 174.837C560.092 174.738 561.201 174.443 561.941 174.567C562.448 174.652 562.942 175.101 562.92 175.095C561.713 175.385 559.795 180.632 560.121 181.058C560.411 181.383 560.702 181.272 560.992 181.107C561.136 179.995 562.258 175.117 563.631 175.511C563.631 175.511 563.631 175.511 563.631 175.511C563.747 175.549 563.856 175.617 563.862 175.721C563.874 175.918 563.743 176.24 563.774 176.464C563.845 176.983 563.95 177.164 564.101 177.345C564.463 177.147 564.809 176.431 564.881 176.06C565.205 176.198 565.726 176.519 566.151 177.712C566.374 176.594 566.053 175.713 565.001 175.322C565.457 175.129 567.44 176.102 567.682 176.645C567.918 175.667 566.252 174.47 564.864 174.534C565.13 174.466 565.423 174.545 565.701 174.345C566.074 174.077 566.509 173.846 566.915 173.598C565.551 173.018 564.292 173.304 564.203 173.904C564.134 172.573 563.076 172.263 562.138 172.267Z" fill="black"/>
<path d="M543.138 169.267C542.591 169.269 542.085 169.378 541.838 169.453C541.838 169.453 544.078 169.825 544.265 171.335C542.562 168.938 540.705 171.837 540.705 171.837C541.092 171.738 542.201 171.443 542.941 171.567C543.448 171.652 543.942 172.101 543.92 172.095C542.713 172.385 540.795 177.632 541.121 178.058C541.411 178.383 541.702 178.272 541.992 178.107C542.136 176.995 543.258 172.117 544.631 172.511C544.631 172.511 544.631 172.511 544.631 172.511C544.747 172.549 544.856 172.617 544.862 172.721C544.874 172.918 544.743 173.24 544.774 173.464C544.845 173.983 544.95 174.164 545.101 174.345C545.463 174.147 545.809 173.431 545.881 173.06C546.205 173.198 546.726 173.519 547.151 174.712C547.374 173.594 547.053 172.713 546.001 172.322C546.457 172.129 548.44 173.102 548.682 173.645C548.918 172.667 547.252 171.47 545.864 171.534C546.13 171.466 546.423 171.545 546.701 171.345C547.074 171.077 547.509 170.846 547.915 170.598C546.551 170.018 545.292 170.304 545.203 170.904C545.134 169.573 544.076 169.263 543.138 169.267Z" fill="black"/>
<path d="M545.138 159.267C544.591 159.269 544.085 159.378 543.838 159.453C543.838 159.453 546.078 159.825 546.265 161.335C544.562 158.938 542.705 161.837 542.705 161.837C543.092 161.738 544.201 161.443 544.941 161.567C545.448 161.652 545.942 162.101 545.92 162.095C544.713 162.385 542.795 167.632 543.121 168.058C543.411 168.383 543.702 168.272 543.992 168.107C544.136 166.995 545.258 162.117 546.631 162.511C546.631 162.511 546.631 162.511 546.631 162.511C546.747 162.549 546.856 162.617 546.862 162.721C546.874 162.918 546.743 163.24 546.774 163.464C546.845 163.983 546.95 164.164 547.101 164.345C547.463 164.147 547.809 163.431 547.881 163.06C548.205 163.198 548.726 163.519 549.151 164.712C549.374 163.594 549.053 162.713 548.001 162.322C548.457 162.129 550.44 163.102 550.682 163.645C550.918 162.667 549.252 161.47 547.864 161.534C548.13 161.466 548.423 161.545 548.701 161.345C549.074 161.077 549.509 160.846 549.915 160.598C548.551 160.018 547.292 160.304 547.203 160.904C547.134 159.573 546.076 159.263 545.138 159.267Z" fill="black"/>
<path d="M615.138 139.267C614.591 139.269 614.085 139.378 613.838 139.453C613.838 139.453 616.078 139.825 616.265 141.335C614.562 138.938 612.705 141.837 612.705 141.837C613.092 141.738 614.201 141.443 614.941 141.567C615.448 141.652 615.942 142.101 615.92 142.095C614.713 142.385 612.795 147.632 613.121 148.058C613.411 148.383 613.702 148.272 613.992 148.107C614.136 146.995 615.258 142.117 616.631 142.511C616.631 142.511 616.631 142.511 616.631 142.511C616.747 142.549 616.856 142.617 616.862 142.721C616.874 142.918 616.743 143.24 616.774 143.464C616.845 143.983 616.95 144.164 617.101 144.345C617.463 144.147 617.809 143.431 617.881 143.06C618.205 143.198 618.726 143.519 619.151 144.712C619.374 143.594 619.053 142.713 618.001 142.322C618.457 142.129 620.44 143.102 620.682 143.645C620.918 142.667 619.252 141.47 617.864 141.534C618.13 141.466 618.423 141.545 618.701 141.345C619.074 141.077 619.509 140.846 619.915 140.598C618.551 140.018 617.292 140.304 617.203 140.904C617.134 139.573 616.076 139.263 615.138 139.267Z" fill="black"/>
<path d="M606.138 136.267C605.591 136.269 605.085 136.378 604.838 136.453C604.838 136.453 607.078 136.825 607.265 138.335C605.562 135.938 603.705 138.837 603.705 138.837C604.092 138.738 605.201 138.443 605.941 138.567C606.448 138.652 606.942 139.101 606.92 139.095C605.713 139.385 603.795 144.632 604.121 145.058C604.411 145.383 604.702 145.272 604.992 145.107C605.136 143.995 606.258 139.117 607.631 139.511C607.631 139.511 607.631 139.511 607.631 139.511C607.747 139.549 607.856 139.617 607.862 139.721C607.874 139.918 607.743 140.24 607.774 140.464C607.845 140.983 607.95 141.164 608.101 141.345C608.463 141.147 608.809 140.431 608.881 140.06C609.205 140.198 609.726 140.519 610.151 141.712C610.374 140.594 610.053 139.713 609.001 139.322C609.457 139.129 611.44 140.102 611.682 140.645C611.918 139.667 610.252 138.47 608.864 138.534C609.13 138.466 609.423 138.545 609.701 138.345C610.074 138.077 610.509 137.846 610.915 137.598C609.551 137.018 608.292 137.304 608.203 137.904C608.134 136.573 607.076 136.263 606.138 136.267Z" fill="black"/>
<path d="M570.138 53.2672C569.591 53.2694 569.085 53.3778 568.838 53.4533C568.838 53.4533 571.078 53.8246 571.265 55.3349C569.562 52.9378 567.705 55.8369 567.705 55.8369C568.092 55.7377 569.201 55.4433 569.941 55.5675C570.448 55.6524 570.942 56.1009 570.92 56.0952C569.713 56.3853 567.795 61.6315 568.121 62.0576C568.411 62.3834 568.702 62.2722 568.992 62.107C569.136 60.9951 570.258 56.1169 571.631 56.5107C571.631 56.5106 571.631 56.5107 571.631 56.5107C571.747 56.5493 571.856 56.6171 571.862 56.7206C571.874 56.9178 571.743 57.2401 571.774 57.464C571.845 57.9834 571.95 58.1641 572.101 58.3453C572.463 58.1467 572.809 57.4308 572.881 57.0596C573.205 57.1982 573.726 57.5192 574.151 58.7116C574.374 57.5943 574.053 56.7129 573.001 56.3215C573.457 56.1292 575.44 57.1023 575.682 57.6447C575.918 56.6667 574.252 55.47 572.864 55.5336C573.13 55.4658 573.423 55.545 573.701 55.345C574.074 55.0768 574.509 54.8457 574.915 54.5975C573.551 54.0183 572.292 54.3043 572.203 54.9038C572.134 53.5733 571.076 53.2633 570.138 53.2672Z" fill="black"/>
<path d="M587.138 50.2672C586.591 50.2694 586.085 50.3778 585.838 50.4533C585.838 50.4533 588.078 50.8246 588.265 52.3349C586.562 49.9378 584.705 52.8369 584.705 52.8369C585.092 52.7377 586.201 52.4433 586.941 52.5675C587.448 52.6524 587.942 53.1009 587.92 53.0952C586.713 53.3853 584.795 58.6315 585.121 59.0576C585.411 59.3834 585.702 59.2722 585.992 59.107C586.136 57.9951 587.258 53.1169 588.631 53.5107C588.631 53.5106 588.631 53.5107 588.631 53.5107C588.747 53.5493 588.856 53.6171 588.862 53.7206C588.874 53.9178 588.743 54.2401 588.774 54.464C588.845 54.9834 588.95 55.1641 589.101 55.3453C589.463 55.1467 589.809 54.4308 589.881 54.0596C590.205 54.1982 590.726 54.5192 591.151 55.7116C591.374 54.5943 591.053 53.7129 590.001 53.3215C590.457 53.1292 592.44 54.1023 592.682 54.6447C592.918 53.6667 591.252 52.47 589.864 52.5336C590.13 52.4658 590.423 52.545 590.701 52.345C591.074 52.0768 591.509 51.8457 591.915 51.5975C590.551 51.0183 589.292 51.3043 589.203 51.9038C589.134 50.5733 588.076 50.2633 587.138 50.2672Z" fill="black"/>
<path d="M578.138 58.2672C577.591 58.2694 577.085 58.3778 576.838 58.4533C576.838 58.4533 579.078 58.8246 579.265 60.3349C577.562 57.9378 575.705 60.8369 575.705 60.8369C576.092 60.7377 577.201 60.4433 577.941 60.5675C578.448 60.6524 578.942 61.1009 578.92 61.0952C577.713 61.3853 575.795 66.6315 576.121 67.0576C576.411 67.3834 576.702 67.2722 576.992 67.107C577.136 65.9951 578.258 61.1169 579.631 61.5107C579.631 61.5106 579.631 61.5107 579.631 61.5107C579.747 61.5493 579.856 61.6171 579.862 61.7206C579.874 61.9178 579.743 62.2401 579.774 62.464C579.845 62.9834 579.95 63.1641 580.101 63.3453C580.463 63.1467 580.809 62.4308 580.881 62.0596C581.205 62.1982 581.726 62.5192 582.151 63.7116C582.374 62.5943 582.053 61.7129 581.001 61.3215C581.457 61.1292 583.44 62.1023 583.682 62.6447C583.918 61.6667 582.252 60.47 580.864 60.5336C581.13 60.4658 581.423 60.545 581.701 60.345C582.074 60.0768 582.509 59.8457 582.915 59.5975C581.551 59.0183 580.292 59.3043 580.203 59.9038C580.134 58.5733 579.076 58.2633 578.138 58.2672Z" fill="black"/>
<path d="M591.138 62.2672C590.591 62.2694 590.085 62.3778 589.838 62.4533C589.838 62.4533 592.078 62.8246 592.265 64.3349C590.562 61.9378 588.705 64.8369 588.705 64.8369C589.092 64.7377 590.201 64.4433 590.941 64.5675C591.448 64.6524 591.942 65.1009 591.92 65.0952C590.713 65.3853 588.795 70.6315 589.121 71.0576C589.411 71.3834 589.702 71.2722 589.992 71.107C590.136 69.9951 591.258 65.1169 592.631 65.5107C592.631 65.5106 592.631 65.5108 592.631 65.5107C592.747 65.5493 592.856 65.6171 592.862 65.7206C592.874 65.9178 592.743 66.2401 592.774 66.464C592.845 66.9834 592.95 67.1641 593.101 67.3453C593.463 67.1467 593.809 66.4308 593.881 66.0596C594.205 66.1982 594.726 66.5192 595.151 67.7116C595.374 66.5943 595.053 65.7129 594.001 65.3215C594.457 65.1292 596.44 66.1023 596.682 66.6447C596.918 65.6667 595.252 64.47 593.864 64.5336C594.13 64.4658 594.423 64.545 594.701 64.345C595.074 64.0768 595.509 63.8457 595.915 63.5975C594.551 63.0183 593.292 63.3043 593.203 63.9038C593.134 62.5733 592.076 62.2633 591.138 62.2672Z" fill="black"/>
<path d="M601.138 44.2672C600.591 44.2694 600.085 44.3778 599.838 44.4533C599.838 44.4533 602.078 44.8246 602.265 46.3349C600.562 43.9378 598.705 46.8369 598.705 46.8369C599.092 46.7377 600.201 46.4433 600.941 46.5675C601.448 46.6524 601.942 47.1009 601.92 47.0952C600.713 47.3853 598.795 52.6315 599.121 53.0576C599.411 53.3834 599.702 53.2722 599.992 53.107C600.136 51.9951 601.258 47.1169 602.631 47.5107C602.631 47.5106 602.631 47.5107 602.631 47.5107C602.747 47.5493 602.856 47.6171 602.862 47.7206C602.874 47.9178 602.743 48.2401 602.774 48.464C602.845 48.9834 602.95 49.1641 603.101 49.3453C603.463 49.1467 603.809 48.4308 603.881 48.0596C604.205 48.1982 604.726 48.5192 605.151 49.7116C605.374 48.5943 605.053 47.7129 604.001 47.3215C604.457 47.1292 606.44 48.1023 606.682 48.6447C606.918 47.6667 605.252 46.47 603.864 46.5336C604.13 46.4658 604.423 46.545 604.701 46.345C605.074 46.0768 605.509 45.8457 605.915 45.5975C604.551 45.0183 603.292 45.3043 603.203 45.9038C603.134 44.5733 602.076 44.2633 601.138 44.2672Z" fill="black"/>
<path d="M575.138 176.267C574.591 176.269 574.085 176.378 573.838 176.453C573.838 176.453 576.078 176.825 576.265 178.335C574.562 175.938 572.705 178.837 572.705 178.837C573.092 178.738 574.201 178.443 574.941 178.567C575.448 178.652 575.942 179.101 575.92 179.095C574.713 179.385 572.795 184.632 573.121 185.058C573.411 185.383 573.702 185.272 573.992 185.107C574.136 183.995 575.258 179.117 576.631 179.511C576.631 179.511 576.631 179.511 576.631 179.511C576.747 179.549 576.856 179.617 576.862 179.721C576.874 179.918 576.743 180.24 576.774 180.464C576.845 180.983 576.95 181.164 577.101 181.345C577.463 181.147 577.809 180.431 577.881 180.06C578.205 180.198 578.726 180.519 579.151 181.712C579.374 180.594 579.053 179.713 578.001 179.322C578.457 179.129 580.44 180.102 580.682 180.645C580.918 179.667 579.252 178.47 577.864 178.534C578.13 178.466 578.423 178.545 578.701 178.345C579.074 178.077 579.509 177.846 579.915 177.598C578.551 177.018 577.292 177.304 577.203 177.904C577.134 176.573 576.076 176.263 575.138 176.267Z" fill="black"/>
<path d="M575.138 169.267C574.591 169.269 574.085 169.378 573.838 169.453C573.838 169.453 576.078 169.825 576.265 171.335C574.562 168.938 572.705 171.837 572.705 171.837C573.092 171.738 574.201 171.443 574.941 171.567C575.448 171.652 575.942 172.101 575.92 172.095C574.713 172.385 572.795 177.632 573.121 178.058C573.411 178.383 573.702 178.272 573.992 178.107C574.136 176.995 575.258 172.117 576.631 172.511C576.631 172.511 576.631 172.511 576.631 172.511C576.747 172.549 576.856 172.617 576.862 172.721C576.874 172.918 576.743 173.24 576.774 173.464C576.845 173.983 576.95 174.164 577.101 174.345C577.463 174.147 577.809 173.431 577.881 173.06C578.205 173.198 578.726 173.519 579.151 174.712C579.374 173.594 579.053 172.713 578.001 172.322C578.457 172.129 580.44 173.102 580.682 173.645C580.918 172.667 579.252 171.47 577.864 171.534C578.13 171.466 578.423 171.545 578.701 171.345C579.074 171.077 579.509 170.846 579.915 170.598C578.551 170.018 577.292 170.304 577.203 170.904C577.134 169.573 576.076 169.263 575.138 169.267Z" fill="black"/>
<path d="M605.138 179.267C604.591 179.269 604.085 179.378 603.838 179.453C603.838 179.453 606.078 179.825 606.265 181.335C604.562 178.938 602.705 181.837 602.705 181.837C603.092 181.738 604.201 181.443 604.941 181.567C605.448 181.652 605.942 182.101 605.92 182.095C604.713 182.385 602.795 187.632 603.121 188.058C603.411 188.383 603.702 188.272 603.992 188.107C604.136 186.995 605.258 182.117 606.631 182.511C606.631 182.511 606.631 182.511 606.631 182.511C606.747 182.549 606.856 182.617 606.862 182.721C606.874 182.918 606.743 183.24 606.774 183.464C606.845 183.983 606.95 184.164 607.101 184.345C607.463 184.147 607.809 183.431 607.881 183.06C608.205 183.198 608.726 183.519 609.151 184.712C609.374 183.594 609.053 182.713 608.001 182.322C608.457 182.129 610.44 183.102 610.682 183.645C610.918 182.667 609.252 181.47 607.864 181.534C608.13 181.466 608.423 181.545 608.701 181.345C609.074 181.077 609.509 180.846 609.915 180.598C608.551 180.018 607.292 180.304 607.203 180.904C607.134 179.573 606.076 179.263 605.138 179.267Z" fill="black"/>
<path d="M617.138 175.267C616.591 175.269 616.085 175.378 615.838 175.453C615.838 175.453 618.078 175.825 618.265 177.335C616.562 174.938 614.705 177.837 614.705 177.837C615.092 177.738 616.201 177.443 616.941 177.567C617.448 177.652 617.942 178.101 617.92 178.095C616.713 178.385 614.795 183.632 615.121 184.058C615.411 184.383 615.702 184.272 615.992 184.107C616.136 182.995 617.258 178.117 618.631 178.511C618.631 178.511 618.631 178.511 618.631 178.511C618.747 178.549 618.856 178.617 618.862 178.721C618.874 178.918 618.743 179.24 618.774 179.464C618.845 179.983 618.95 180.164 619.101 180.345C619.463 180.147 619.809 179.431 619.881 179.06C620.205 179.198 620.726 179.519 621.151 180.712C621.374 179.594 621.053 178.713 620.001 178.322C620.457 178.129 622.44 179.102 622.682 179.645C622.918 178.667 621.252 177.47 619.864 177.534C620.13 177.466 620.423 177.545 620.701 177.345C621.074 177.077 621.509 176.846 621.915 176.598C620.551 176.018 619.292 176.304 619.203 176.904C619.134 175.573 618.076 175.263 617.138 175.267Z" fill="black"/>
<path d="M626.138 184.267C625.591 184.269 625.085 184.378 624.838 184.453C624.838 184.453 627.078 184.825 627.265 186.335C625.562 183.938 623.705 186.837 623.705 186.837C624.092 186.738 625.201 186.443 625.941 186.567C626.448 186.652 626.942 187.101 626.92 187.095C625.713 187.385 623.795 192.632 624.121 193.058C624.411 193.383 624.702 193.272 624.992 193.107C625.136 191.995 626.258 187.117 627.631 187.511C627.631 187.511 627.631 187.511 627.631 187.511C627.747 187.549 627.856 187.617 627.862 187.721C627.874 187.918 627.743 188.24 627.774 188.464C627.845 188.983 627.95 189.164 628.101 189.345C628.463 189.147 628.809 188.431 628.881 188.06C629.205 188.198 629.726 188.519 630.151 189.712C630.374 188.594 630.053 187.713 629.001 187.322C629.457 187.129 631.44 188.102 631.682 188.645C631.918 187.667 630.252 186.47 628.864 186.534C629.13 186.466 629.423 186.545 629.701 186.345C630.074 186.077 630.509 185.846 630.915 185.598C629.551 185.018 628.292 185.304 628.203 185.904C628.134 184.573 627.076 184.263 626.138 184.267Z" fill="black"/>
<path d="M638.138 179.267C637.591 179.269 637.085 179.378 636.838 179.453C636.838 179.453 639.078 179.825 639.265 181.335C637.562 178.938 635.705 181.837 635.705 181.837C636.092 181.738 637.201 181.443 637.941 181.567C638.448 181.652 638.942 182.101 638.92 182.095C637.713 182.385 635.795 187.632 636.121 188.058C636.411 188.383 636.702 188.272 636.992 188.107C637.136 186.995 638.258 182.117 639.631 182.511C639.631 182.511 639.631 182.511 639.631 182.511C639.747 182.549 639.856 182.617 639.862 182.721C639.874 182.918 639.743 183.24 639.774 183.464C639.845 183.983 639.95 184.164 640.101 184.345C640.463 184.147 640.809 183.431 640.881 183.06C641.205 183.198 641.726 183.519 642.151 184.712C642.374 183.594 642.053 182.713 641.001 182.322C641.457 182.129 643.44 183.102 643.682 183.645C643.918 182.667 642.252 181.47 640.864 181.534C641.13 181.466 641.423 181.545 641.701 181.345C642.074 181.077 642.509 180.846 642.915 180.598C641.551 180.018 640.292 180.304 640.203 180.904C640.134 179.573 639.076 179.263 638.138 179.267Z" fill="black"/>
<path d="M760.138 158.267C759.592 158.269 759.085 158.378 758.838 158.453C758.838 158.453 761.079 158.825 761.265 160.335C759.563 157.938 757.705 160.837 757.705 160.837C758.092 160.738 759.201 160.443 759.942 160.567C760.448 160.652 760.942 161.101 760.921 161.095C759.714 161.385 757.795 166.632 758.121 167.058C758.412 167.383 758.702 167.272 758.993 167.107C759.137 165.995 760.259 161.117 761.631 161.511C761.631 161.511 761.632 161.511 761.631 161.511C761.747 161.549 761.857 161.617 761.863 161.721C761.874 161.918 761.744 162.24 761.775 162.464C761.846 162.983 761.95 163.164 762.102 163.345C762.464 163.147 762.81 162.431 762.881 162.06C763.206 162.198 763.727 162.519 764.152 163.712C764.374 162.594 764.054 161.713 763.001 161.322C763.457 161.129 765.441 162.102 765.683 162.645C765.918 161.667 764.252 160.47 762.865 160.534C763.131 160.466 763.423 160.545 763.701 160.345C764.074 160.077 764.51 159.846 764.915 159.598C763.551 159.018 762.293 159.304 762.204 159.904C762.134 158.573 761.077 158.263 760.138 158.267Z" fill="black"/>
<path d="M792.138 187.267C791.592 187.269 791.085 187.378 790.838 187.453C790.838 187.453 793.079 187.825 793.265 189.335C791.563 186.938 789.705 189.837 789.705 189.837C790.092 189.738 791.201 189.443 791.942 189.567C792.448 189.652 792.942 190.101 792.921 190.095C791.714 190.385 789.795 195.632 790.121 196.058C790.412 196.383 790.702 196.272 790.993 196.107C791.137 194.995 792.259 190.117 793.631 190.511C793.631 190.511 793.632 190.511 793.631 190.511C793.747 190.549 793.857 190.617 793.863 190.721C793.874 190.918 793.744 191.24 793.775 191.464C793.846 191.983 793.95 192.164 794.102 192.345C794.464 192.147 794.81 191.431 794.881 191.06C795.206 191.198 795.727 191.519 796.152 192.712C796.374 191.594 796.054 190.713 795.001 190.322C795.457 190.129 797.441 191.102 797.683 191.645C797.918 190.667 796.252 189.47 794.865 189.534C795.131 189.466 795.423 189.545 795.701 189.345C796.074 189.077 796.51 188.846 796.915 188.598C795.551 188.018 794.293 188.304 794.204 188.904C794.134 187.573 793.077 187.263 792.138 187.267Z" fill="black"/>
<path d="M832.138 170.267C831.592 170.269 831.085 170.378 830.838 170.453C830.838 170.453 833.079 170.825 833.265 172.335C831.563 169.938 829.705 172.837 829.705 172.837C830.092 172.738 831.201 172.443 831.942 172.567C832.448 172.652 832.942 173.101 832.921 173.095C831.714 173.385 829.795 178.632 830.121 179.058C830.412 179.383 830.702 179.272 830.993 179.107C831.137 177.995 832.259 173.117 833.631 173.511C833.631 173.511 833.632 173.511 833.631 173.511C833.747 173.549 833.857 173.617 833.863 173.721C833.874 173.918 833.744 174.24 833.775 174.464C833.846 174.983 833.95 175.164 834.102 175.345C834.464 175.147 834.81 174.431 834.881 174.06C835.206 174.198 835.727 174.519 836.152 175.712C836.374 174.594 836.054 173.713 835.001 173.322C835.457 173.129 837.441 174.102 837.683 174.645C837.918 173.667 836.252 172.47 834.865 172.534C835.131 172.466 835.423 172.545 835.701 172.345C836.074 172.077 836.51 171.846 836.915 171.598C835.551 171.018 834.293 171.304 834.204 171.904C834.134 170.573 833.077 170.263 832.138 170.267Z" fill="black"/>
<path d="M821.138 170.267C820.592 170.269 820.085 170.378 819.838 170.453C819.838 170.453 822.079 170.825 822.265 172.335C820.563 169.938 818.705 172.837 818.705 172.837C819.092 172.738 820.201 172.443 820.942 172.567C821.448 172.652 821.942 173.101 821.921 173.095C820.714 173.385 818.795 178.632 819.121 179.058C819.412 179.383 819.702 179.272 819.993 179.107C820.137 177.995 821.259 173.117 822.631 173.511C822.631 173.511 822.632 173.511 822.631 173.511C822.747 173.549 822.857 173.617 822.863 173.721C822.874 173.918 822.744 174.24 822.775 174.464C822.846 174.983 822.95 175.164 823.102 175.345C823.464 175.147 823.81 174.431 823.881 174.06C824.206 174.198 824.727 174.519 825.152 175.712C825.374 174.594 825.054 173.713 824.001 173.322C824.457 173.129 826.441 174.102 826.683 174.645C826.918 173.667 825.252 172.47 823.865 172.534C824.131 172.466 824.423 172.545 824.701 172.345C825.074 172.077 825.51 171.846 825.915 171.598C824.551 171.018 823.293 171.304 823.204 171.904C823.134 170.573 822.077 170.263 821.138 170.267Z" fill="black"/>
<path d="M823.138 184.267C822.592 184.269 822.085 184.378 821.838 184.453C821.838 184.453 824.079 184.825 824.265 186.335C822.563 183.938 820.705 186.837 820.705 186.837C821.092 186.738 822.201 186.443 822.942 186.567C823.448 186.652 823.942 187.101 823.921 187.095C822.714 187.385 820.795 192.632 821.121 193.058C821.412 193.383 821.702 193.272 821.993 193.107C822.137 191.995 823.259 187.117 824.631 187.511C824.631 187.511 824.632 187.511 824.631 187.511C824.747 187.549 824.857 187.617 824.863 187.721C824.874 187.918 824.744 188.24 824.775 188.464C824.846 188.983 824.95 189.164 825.102 189.345C825.464 189.147 825.81 188.431 825.881 188.06C826.206 188.198 826.727 188.519 827.152 189.712C827.374 188.594 827.054 187.713 826.001 187.322C826.457 187.129 828.441 188.102 828.683 188.645C828.918 187.667 827.252 186.47 825.865 186.534C826.131 186.466 826.423 186.545 826.701 186.345C827.074 186.077 827.51 185.846 827.915 185.598C826.551 185.018 825.293 185.304 825.204 185.904C825.134 184.573 824.077 184.263 823.138 184.267Z" fill="black"/>
<path d="M761.138 141.267C760.592 141.269 760.085 141.378 759.838 141.453C759.838 141.453 762.079 141.825 762.265 143.335C760.563 140.938 758.705 143.837 758.705 143.837C759.092 143.738 760.201 143.443 760.942 143.567C761.448 143.652 761.942 144.101 761.921 144.095C760.714 144.385 758.795 149.632 759.121 150.058C759.412 150.383 759.702 150.272 759.993 150.107C760.137 148.995 761.259 144.117 762.631 144.511C762.631 144.511 762.632 144.511 762.631 144.511C762.747 144.549 762.857 144.617 762.863 144.721C762.874 144.918 762.744 145.24 762.775 145.464C762.846 145.983 762.95 146.164 763.102 146.345C763.464 146.147 763.81 145.431 763.881 145.06C764.206 145.198 764.727 145.519 765.152 146.712C765.374 145.594 765.054 144.713 764.001 144.322C764.457 144.129 766.441 145.102 766.683 145.645C766.918 144.667 765.252 143.47 763.865 143.534C764.131 143.466 764.423 143.545 764.701 143.345C765.074 143.077 765.51 142.846 765.915 142.598C764.551 142.018 763.293 142.304 763.204 142.904C763.134 141.573 762.077 141.263 761.138 141.267Z" fill="black"/>
<path d="M751.138 131.267C750.592 131.269 750.085 131.378 749.838 131.453C749.838 131.453 752.079 131.825 752.265 133.335C750.563 130.938 748.705 133.837 748.705 133.837C749.092 133.738 750.201 133.443 750.942 133.567C751.448 133.652 751.942 134.101 751.921 134.095C750.714 134.385 748.795 139.632 749.121 140.058C749.412 140.383 749.702 140.272 749.993 140.107C750.137 138.995 751.259 134.117 752.631 134.511C752.631 134.511 752.632 134.511 752.631 134.511C752.747 134.549 752.857 134.617 752.863 134.721C752.874 134.918 752.744 135.24 752.775 135.464C752.846 135.983 752.95 136.164 753.102 136.345C753.464 136.147 753.81 135.431 753.881 135.06C754.206 135.198 754.727 135.519 755.152 136.712C755.374 135.594 755.054 134.713 754.001 134.322C754.457 134.129 756.441 135.102 756.683 135.645C756.918 134.667 755.252 133.47 753.865 133.534C754.131 133.466 754.423 133.545 754.701 133.345C755.074 133.077 755.51 132.846 755.915 132.598C754.551 132.018 753.293 132.304 753.204 132.904C753.134 131.573 752.077 131.263 751.138 131.267Z" fill="black"/>
<path d="M761.138 127.267C760.592 127.269 760.085 127.378 759.838 127.453C759.838 127.453 762.079 127.825 762.265 129.335C760.563 126.938 758.705 129.837 758.705 129.837C759.092 129.738 760.201 129.443 760.942 129.567C761.448 129.652 761.942 130.101 761.921 130.095C760.714 130.385 758.795 135.632 759.121 136.058C759.412 136.383 759.702 136.272 759.993 136.107C760.137 134.995 761.259 130.117 762.631 130.511C762.631 130.511 762.632 130.511 762.631 130.511C762.747 130.549 762.857 130.617 762.863 130.721C762.874 130.918 762.744 131.24 762.775 131.464C762.846 131.983 762.95 132.164 763.102 132.345C763.464 132.147 763.81 131.431 763.881 131.06C764.206 131.198 764.727 131.519 765.152 132.712C765.374 131.594 765.054 130.713 764.001 130.322C764.457 130.129 766.441 131.102 766.683 131.645C766.918 130.667 765.252 129.47 763.865 129.534C764.131 129.466 764.423 129.545 764.701 129.345C765.074 129.077 765.51 128.846 765.915 128.598C764.551 128.018 763.293 128.304 763.204 128.904C763.134 127.573 762.077 127.263 761.138 127.267Z" fill="black"/>
<path d="M738.138 77.2672C737.592 77.2694 737.085 77.3778 736.838 77.4533C736.838 77.4533 739.079 77.8246 739.265 79.3349C737.563 76.9378 735.705 79.8369 735.705 79.8369C736.092 79.7377 737.201 79.4433 737.942 79.5675C738.448 79.6524 738.942 80.1009 738.921 80.0952C737.714 80.3853 735.795 85.6315 736.121 86.0576C736.412 86.3834 736.702 86.2722 736.993 86.107C737.137 84.9951 738.259 80.1169 739.631 80.5107C739.631 80.5106 739.632 80.5108 739.631 80.5107C739.747 80.5493 739.857 80.6171 739.863 80.7206C739.874 80.9178 739.744 81.2401 739.775 81.464C739.846 81.9834 739.95 82.1641 740.102 82.3453C740.464 82.1467 740.81 81.4308 740.881 81.0596C741.206 81.1982 741.727 81.5192 742.152 82.7116C742.374 81.5943 742.054 80.7129 741.001 80.3215C741.457 80.1292 743.441 81.1023 743.683 81.6447C743.918 80.6667 742.252 79.47 740.865 79.5336C741.131 79.4658 741.423 79.545 741.701 79.345C742.074 79.0768 742.51 78.8457 742.915 78.5975C741.551 78.0183 740.293 78.3043 740.204 78.9038C740.134 77.5733 739.077 77.2633 738.138 77.2672Z" fill="black"/>
<path d="M728.138 67.2672C727.592 67.2694 727.085 67.3778 726.838 67.4533C726.838 67.4533 729.079 67.8246 729.265 69.3349C727.563 66.9378 725.705 69.8369 725.705 69.8369C726.092 69.7377 727.201 69.4433 727.942 69.5675C728.448 69.6524 728.942 70.1009 728.921 70.0952C727.714 70.3853 725.795 75.6315 726.121 76.0576C726.412 76.3834 726.702 76.2722 726.993 76.107C727.137 74.9951 728.259 70.1169 729.631 70.5107C729.631 70.5106 729.632 70.5108 729.631 70.5107C729.747 70.5493 729.857 70.6171 729.863 70.7206C729.874 70.9178 729.744 71.2401 729.775 71.464C729.846 71.9834 729.95 72.1641 730.102 72.3453C730.464 72.1467 730.81 71.4308 730.881 71.0596C731.206 71.1982 731.727 71.5192 732.152 72.7116C732.374 71.5943 732.054 70.7129 731.001 70.3215C731.457 70.1292 733.441 71.1023 733.683 71.6447C733.918 70.6667 732.252 69.47 730.865 69.5336C731.131 69.4658 731.423 69.545 731.701 69.345C732.074 69.0768 732.51 68.8457 732.915 68.5975C731.551 68.0183 730.293 68.3043 730.204 68.9038C730.134 67.5733 729.077 67.2633 728.138 67.2672Z" fill="black"/>
<path d="M714.138 62.2672C713.592 62.2694 713.085 62.3778 712.838 62.4533C712.838 62.4533 715.079 62.8246 715.265 64.3349C713.563 61.9378 711.705 64.8369 711.705 64.8369C712.092 64.7377 713.201 64.4433 713.942 64.5675C714.448 64.6524 714.942 65.1009 714.921 65.0952C713.714 65.3853 711.795 70.6315 712.121 71.0576C712.412 71.3834 712.702 71.2722 712.993 71.107C713.137 69.9951 714.259 65.1169 715.631 65.5107C715.631 65.5106 715.632 65.5108 715.631 65.5107C715.747 65.5493 715.857 65.6171 715.863 65.7206C715.874 65.9178 715.744 66.2401 715.775 66.464C715.846 66.9834 715.95 67.1641 716.102 67.3453C716.464 67.1467 716.81 66.4308 716.881 66.0596C717.206 66.1982 717.727 66.5192 718.152 67.7116C718.374 66.5943 718.054 65.7129 717.001 65.3215C717.457 65.1292 719.441 66.1023 719.683 66.6447C719.918 65.6667 718.252 64.47 716.865 64.5336C717.131 64.4658 717.423 64.545 717.701 64.345C718.074 64.0768 718.51 63.8457 718.915 63.5975C717.551 63.0183 716.293 63.3043 716.204 63.9038C716.134 62.5733 715.077 62.2633 714.138 62.2672Z" fill="black"/>
<path d="M718.138 73.2672C717.592 73.2694 717.085 73.3778 716.838 73.4533C716.838 73.4533 719.079 73.8246 719.265 75.3349C717.563 72.9378 715.705 75.8369 715.705 75.8369C716.092 75.7377 717.201 75.4433 717.942 75.5675C718.448 75.6524 718.942 76.1009 718.921 76.0952C717.714 76.3853 715.795 81.6315 716.121 82.0576C716.412 82.3834 716.702 82.2722 716.993 82.107C717.137 80.9951 718.259 76.1169 719.631 76.5107C719.631 76.5106 719.632 76.5108 719.631 76.5107C719.747 76.5493 719.857 76.6171 719.863 76.7206C719.874 76.9178 719.744 77.2401 719.775 77.464C719.846 77.9834 719.95 78.1641 720.102 78.3453C720.464 78.1467 720.81 77.4308 720.881 77.0596C721.206 77.1982 721.727 77.5192 722.152 78.7116C722.374 77.5943 722.054 76.7129 721.001 76.3215C721.457 76.1292 723.441 77.1023 723.683 77.6447C723.918 76.6667 722.252 75.47 720.865 75.5336C721.131 75.4658 721.423 75.545 721.701 75.345C722.074 75.0768 722.51 74.8457 722.915 74.5975C721.551 74.0183 720.293 74.3043 720.204 74.9038C720.134 73.5733 719.077 73.2633 718.138 73.2672Z" fill="black"/>
<path d="M725.138 76.2672C724.592 76.2694 724.085 76.3778 723.838 76.4533C723.838 76.4533 726.079 76.8246 726.265 78.3349C724.563 75.9378 722.705 78.8369 722.705 78.8369C723.092 78.7377 724.201 78.4433 724.942 78.5675C725.448 78.6524 725.942 79.1009 725.921 79.0952C724.714 79.3853 722.795 84.6315 723.121 85.0576C723.412 85.3834 723.702 85.2722 723.993 85.107C724.137 83.9951 725.259 79.1169 726.631 79.5107C726.631 79.5106 726.632 79.5108 726.631 79.5107C726.747 79.5493 726.857 79.6171 726.863 79.7206C726.874 79.9178 726.744 80.2401 726.775 80.464C726.846 80.9834 726.95 81.1641 727.102 81.3453C727.464 81.1467 727.81 80.4308 727.881 80.0596C728.206 80.1982 728.727 80.5192 729.152 81.7116C729.374 80.5943 729.054 79.7129 728.001 79.3215C728.457 79.1292 730.441 80.1023 730.683 80.6447C730.918 79.6667 729.252 78.47 727.865 78.5336C728.131 78.4658 728.423 78.545 728.701 78.345C729.074 78.0768 729.51 77.8457 729.915 77.5975C728.551 77.0183 727.293 77.3043 727.204 77.9038C727.134 76.5733 726.077 76.2633 725.138 76.2672Z" fill="black"/>
<path d="M730.138 83.2672C729.592 83.2694 729.085 83.3778 728.838 83.4533C728.838 83.4533 731.079 83.8246 731.265 85.3349C729.563 82.9378 727.705 85.8369 727.705 85.8369C728.092 85.7377 729.201 85.4433 729.942 85.5675C730.448 85.6524 730.942 86.1009 730.921 86.0952C729.714 86.3853 727.795 91.6315 728.121 92.0576C728.412 92.3834 728.702 92.2722 728.993 92.107C729.137 90.9951 730.259 86.1169 731.631 86.5107C731.631 86.5106 731.632 86.5108 731.631 86.5107C731.747 86.5493 731.857 86.6171 731.863 86.7206C731.874 86.9178 731.744 87.2401 731.775 87.464C731.846 87.9834 731.95 88.1641 732.102 88.3453C732.464 88.1467 732.81 87.4308 732.881 87.0596C733.206 87.1982 733.727 87.5192 734.152 88.7116C734.374 87.5943 734.054 86.7129 733.001 86.3215C733.457 86.1292 735.441 87.1023 735.683 87.6447C735.918 86.6667 734.252 85.47 732.865 85.5336C733.131 85.4658 733.423 85.545 733.701 85.345C734.074 85.0768 734.51 84.8457 734.915 84.5975C733.551 84.0183 732.293 84.3043 732.204 84.9038C732.134 83.5733 731.077 83.2633 730.138 83.2672Z" fill="black"/>
<path d="M738.138 85.2672C737.592 85.2694 737.085 85.3778 736.838 85.4533C736.838 85.4533 739.079 85.8246 739.265 87.3349C737.563 84.9378 735.705 87.8369 735.705 87.8369C736.092 87.7377 737.201 87.4433 737.942 87.5675C738.448 87.6524 738.942 88.1009 738.921 88.0952C737.714 88.3853 735.795 93.6315 736.121 94.0576C736.412 94.3834 736.702 94.2722 736.993 94.107C737.137 92.9951 738.259 88.1169 739.631 88.5107C739.631 88.5106 739.632 88.5108 739.631 88.5107C739.747 88.5493 739.857 88.6171 739.863 88.7206C739.874 88.9178 739.744 89.2401 739.775 89.464C739.846 89.9834 739.95 90.1641 740.102 90.3453C740.464 90.1467 740.81 89.4308 740.881 89.0596C741.206 89.1982 741.727 89.5192 742.152 90.7116C742.374 89.5943 742.054 88.7129 741.001 88.3215C741.457 88.1292 743.441 89.1023 743.683 89.6447C743.918 88.6667 742.252 87.47 740.865 87.5336C741.131 87.4658 741.423 87.545 741.701 87.345C742.074 87.0768 742.51 86.8457 742.915 86.5975C741.551 86.0183 740.293 86.3043 740.204 86.9038C740.134 85.5733 739.077 85.2633 738.138 85.2672Z" fill="black"/>
<path d="M767.138 61.2672C766.592 61.2694 766.085 61.3778 765.838 61.4533C765.838 61.4533 768.079 61.8246 768.265 63.3349C766.563 60.9378 764.705 63.8369 764.705 63.8369C765.092 63.7377 766.201 63.4433 766.942 63.5675C767.448 63.6524 767.942 64.1009 767.921 64.0952C766.714 64.3853 764.795 69.6315 765.121 70.0576C765.412 70.3834 765.702 70.2722 765.993 70.107C766.137 68.9951 767.259 64.1169 768.631 64.5107C768.631 64.5106 768.632 64.5108 768.631 64.5107C768.747 64.5493 768.857 64.6171 768.863 64.7206C768.874 64.9178 768.744 65.2401 768.775 65.464C768.846 65.9834 768.95 66.1641 769.102 66.3453C769.464 66.1467 769.81 65.4308 769.881 65.0596C770.206 65.1982 770.727 65.5192 771.152 66.7116C771.374 65.5943 771.054 64.7129 770.001 64.3215C770.457 64.1292 772.441 65.1023 772.683 65.6447C772.918 64.6667 771.252 63.47 769.865 63.5336C770.131 63.4658 770.423 63.545 770.701 63.345C771.074 63.0768 771.51 62.8457 771.915 62.5975C770.551 62.0183 769.293 62.3043 769.204 62.9038C769.134 61.5733 768.077 61.2633 767.138 61.2672Z" fill="black"/>
<path d="M777.138 54.2672C776.592 54.2694 776.085 54.3778 775.838 54.4533C775.838 54.4533 778.079 54.8246 778.265 56.3349C776.563 53.9378 774.705 56.8369 774.705 56.8369C775.092 56.7377 776.201 56.4433 776.942 56.5675C777.448 56.6524 777.942 57.1009 777.921 57.0952C776.714 57.3853 774.795 62.6315 775.121 63.0576C775.412 63.3834 775.702 63.2722 775.993 63.107C776.137 61.9951 777.259 57.1169 778.631 57.5107C778.631 57.5106 778.632 57.5107 778.631 57.5107C778.747 57.5493 778.857 57.6171 778.863 57.7206C778.874 57.9178 778.744 58.2401 778.775 58.464C778.846 58.9834 778.95 59.1641 779.102 59.3453C779.464 59.1467 779.81 58.4308 779.881 58.0596C780.206 58.1982 780.727 58.5192 781.152 59.7116C781.374 58.5943 781.054 57.7129 780.001 57.3215C780.457 57.1292 782.441 58.1023 782.683 58.6447C782.918 57.6667 781.252 56.47 779.865 56.5336C780.131 56.4658 780.423 56.545 780.701 56.345C781.074 56.0768 781.51 55.8457 781.915 55.5975C780.551 55.0183 779.293 55.3043 779.204 55.9038C779.134 54.5733 778.077 54.2633 777.138 54.2672Z" fill="black"/>
<path d="M777.138 67.2672C776.592 67.2694 776.085 67.3778 775.838 67.4533C775.838 67.4533 778.079 67.8246 778.265 69.3349C776.563 66.9378 774.705 69.8369 774.705 69.8369C775.092 69.7377 776.201 69.4433 776.942 69.5675C777.448 69.6524 777.942 70.1009 777.921 70.0952C776.714 70.3853 774.795 75.6315 775.121 76.0576C775.412 76.3834 775.702 76.2722 775.993 76.107C776.137 74.9951 777.259 70.1169 778.631 70.5107C778.631 70.5106 778.632 70.5108 778.631 70.5107C778.747 70.5493 778.857 70.6171 778.863 70.7206C778.874 70.9178 778.744 71.2401 778.775 71.464C778.846 71.9834 778.95 72.1641 779.102 72.3453C779.464 72.1467 779.81 71.4308 779.881 71.0596C780.206 71.1982 780.727 71.5192 781.152 72.7116C781.374 71.5943 781.054 70.7129 780.001 70.3215C780.457 70.1292 782.441 71.1023 782.683 71.6447C782.918 70.6667 781.252 69.47 779.865 69.5336C780.131 69.4658 780.423 69.545 780.701 69.345C781.074 69.0768 781.51 68.8457 781.915 68.5975C780.551 68.0183 779.293 68.3043 779.204 68.9038C779.134 67.5733 778.077 67.2633 777.138 67.2672Z" fill="black"/>
<path d="M789.138 67.2672C788.592 67.2694 788.085 67.3778 787.838 67.4533C787.838 67.4533 790.079 67.8246 790.265 69.3349C788.563 66.9378 786.705 69.8369 786.705 69.8369C787.092 69.7377 788.201 69.4433 788.942 69.5675C789.448 69.6524 789.942 70.1009 789.921 70.0952C788.714 70.3853 786.795 75.6315 787.121 76.0576C787.412 76.3834 787.702 76.2722 787.993 76.107C788.137 74.9951 789.259 70.1169 790.631 70.5107C790.631 70.5106 790.632 70.5108 790.631 70.5107C790.747 70.5493 790.857 70.6171 790.863 70.7206C790.874 70.9178 790.744 71.2401 790.775 71.464C790.846 71.9834 790.95 72.1641 791.102 72.3453C791.464 72.1467 791.81 71.4308 791.881 71.0596C792.206 71.1982 792.727 71.5192 793.152 72.7116C793.374 71.5943 793.054 70.7129 792.001 70.3215C792.457 70.1292 794.441 71.1023 794.683 71.6447C794.918 70.6667 793.252 69.47 791.865 69.5336C792.131 69.4658 792.423 69.545 792.701 69.345C793.074 69.0768 793.51 68.8457 793.915 68.5975C792.551 68.0183 791.293 68.3043 791.204 68.9038C791.134 67.5733 790.077 67.2633 789.138 67.2672Z" fill="black"/>
<path d="M785.138 83.2672C784.592 83.2694 784.085 83.3778 783.838 83.4533C783.838 83.4533 786.079 83.8246 786.265 85.3349C784.563 82.9378 782.705 85.8369 782.705 85.8369C783.092 85.7377 784.201 85.4433 784.942 85.5675C785.448 85.6524 785.942 86.1009 785.921 86.0952C784.714 86.3853 782.795 91.6315 783.121 92.0576C783.412 92.3834 783.702 92.2722 783.993 92.107C784.137 90.9951 785.259 86.1169 786.631 86.5107C786.631 86.5106 786.632 86.5108 786.631 86.5107C786.747 86.5493 786.857 86.6171 786.863 86.7206C786.874 86.9178 786.744 87.2401 786.775 87.464C786.846 87.9834 786.95 88.1641 787.102 88.3453C787.464 88.1467 787.81 87.4308 787.881 87.0596C788.206 87.1982 788.727 87.5192 789.152 88.7116C789.374 87.5943 789.054 86.7129 788.001 86.3215C788.457 86.1292 790.441 87.1023 790.683 87.6447C790.918 86.6667 789.252 85.47 787.865 85.5336C788.131 85.4658 788.423 85.545 788.701 85.345C789.074 85.0768 789.51 84.8457 789.915 84.5975C788.551 84.0183 787.293 84.3043 787.204 84.9038C787.134 83.5733 786.077 83.2633 785.138 83.2672Z" fill="black"/>
<path d="M793.138 93.2672C792.592 93.2694 792.085 93.3778 791.838 93.4533C791.838 93.4533 794.079 93.8246 794.265 95.3349C792.563 92.9378 790.705 95.8369 790.705 95.8369C791.092 95.7377 792.201 95.4433 792.942 95.5675C793.448 95.6524 793.942 96.1009 793.921 96.0952C792.714 96.3853 790.795 101.632 791.121 102.058C791.412 102.383 791.702 102.272 791.993 102.107C792.137 100.995 793.259 96.1169 794.631 96.5107C794.631 96.5106 794.632 96.5108 794.631 96.5107C794.747 96.5493 794.857 96.6171 794.863 96.7206C794.874 96.9178 794.744 97.2401 794.775 97.464C794.846 97.9834 794.95 98.1641 795.102 98.3453C795.464 98.1467 795.81 97.4308 795.881 97.0596C796.206 97.1982 796.727 97.5192 797.152 98.7116C797.374 97.5943 797.054 96.7129 796.001 96.3215C796.457 96.1292 798.441 97.1023 798.683 97.6447C798.918 96.6667 797.252 95.47 795.865 95.5336C796.131 95.4658 796.423 95.545 796.701 95.345C797.074 95.0768 797.51 94.8457 797.915 94.5975C796.551 94.0183 795.293 94.3043 795.204 94.9038C795.134 93.5733 794.077 93.2633 793.138 93.2672Z" fill="black"/>
<path d="M310.138 215.267C309.591 215.269 309.085 215.378 308.838 215.453C308.838 215.453 311.078 215.825 311.265 217.335C309.562 214.938 307.705 217.837 307.705 217.837C308.092 217.738 309.201 217.443 309.941 217.567C310.448 217.652 310.942 218.101 310.92 218.095C309.713 218.385 307.795 223.632 308.121 224.058C308.411 224.383 308.702 224.272 308.992 224.107C309.136 222.995 310.258 218.117 311.631 218.511C311.631 218.511 311.631 218.511 311.631 218.511C311.747 218.549 311.856 218.617 311.862 218.721C311.874 218.918 311.743 219.24 311.774 219.464C311.845 219.983 311.95 220.164 312.101 220.345C312.463 220.147 312.809 219.431 312.881 219.06C313.205 219.198 313.726 219.519 314.151 220.712C314.374 219.594 314.053 218.713 313.001 218.322C313.457 218.129 315.44 219.102 315.682 219.645C315.918 218.667 314.252 217.47 312.864 217.534C313.13 217.466 313.423 217.545 313.701 217.345C314.074 217.077 314.509 216.846 314.915 216.598C313.551 216.018 312.292 216.304 312.204 216.904C312.134 215.573 311.076 215.263 310.138 215.267Z" fill="black"/>
<path d="M324.138 219.267C323.591 219.269 323.085 219.378 322.838 219.453C322.838 219.453 325.078 219.825 325.265 221.335C323.562 218.938 321.705 221.837 321.705 221.837C322.092 221.738 323.201 221.443 323.941 221.567C324.448 221.652 324.942 222.101 324.92 222.095C323.713 222.385 321.795 227.632 322.121 228.058C322.411 228.383 322.702 228.272 322.992 228.107C323.136 226.995 324.258 222.117 325.631 222.511C325.631 222.511 325.631 222.511 325.631 222.511C325.747 222.549 325.856 222.617 325.862 222.721C325.874 222.918 325.743 223.24 325.774 223.464C325.845 223.983 325.95 224.164 326.101 224.345C326.463 224.147 326.809 223.431 326.881 223.06C327.205 223.198 327.726 223.519 328.151 224.712C328.374 223.594 328.053 222.713 327.001 222.322C327.457 222.129 329.44 223.102 329.682 223.645C329.918 222.667 328.252 221.47 326.864 221.534C327.13 221.466 327.423 221.545 327.701 221.345C328.074 221.077 328.509 220.846 328.915 220.598C327.551 220.018 326.292 220.304 326.204 220.904C326.134 219.573 325.076 219.263 324.138 219.267Z" fill="black"/>
<path d="M315.138 224.267C314.591 224.269 314.085 224.378 313.838 224.453C313.838 224.453 316.078 224.825 316.265 226.335C314.562 223.938 312.705 226.837 312.705 226.837C313.092 226.738 314.201 226.443 314.941 226.567C315.448 226.652 315.942 227.101 315.92 227.095C314.713 227.385 312.795 232.632 313.121 233.058C313.411 233.383 313.702 233.272 313.992 233.107C314.136 231.995 315.258 227.117 316.631 227.511C316.631 227.511 316.631 227.511 316.631 227.511C316.747 227.549 316.856 227.617 316.862 227.721C316.874 227.918 316.743 228.24 316.774 228.464C316.845 228.983 316.95 229.164 317.101 229.345C317.463 229.147 317.809 228.431 317.881 228.06C318.205 228.198 318.726 228.519 319.151 229.712C319.374 228.594 319.053 227.713 318.001 227.322C318.457 227.129 320.44 228.102 320.682 228.645C320.918 227.667 319.252 226.47 317.864 226.534C318.13 226.466 318.423 226.545 318.701 226.345C319.074 226.077 319.509 225.846 319.915 225.598C318.551 225.018 317.292 225.304 317.204 225.904C317.134 224.573 316.076 224.263 315.138 224.267Z" fill="black"/>
<path d="M306.138 226.267C305.591 226.269 305.085 226.378 304.838 226.453C304.838 226.453 307.078 226.825 307.265 228.335C305.562 225.938 303.705 228.837 303.705 228.837C304.092 228.738 305.201 228.443 305.941 228.567C306.448 228.652 306.942 229.101 306.92 229.095C305.713 229.385 303.795 234.632 304.121 235.058C304.411 235.383 304.702 235.272 304.992 235.107C305.136 233.995 306.258 229.117 307.631 229.511C307.631 229.511 307.631 229.511 307.631 229.511C307.747 229.549 307.856 229.617 307.862 229.721C307.874 229.918 307.743 230.24 307.774 230.464C307.845 230.983 307.95 231.164 308.101 231.345C308.463 231.147 308.809 230.431 308.881 230.06C309.205 230.198 309.726 230.519 310.151 231.712C310.374 230.594 310.053 229.713 309.001 229.322C309.457 229.129 311.44 230.102 311.682 230.645C311.918 229.667 310.252 228.47 308.864 228.534C309.13 228.466 309.423 228.545 309.701 228.345C310.074 228.077 310.509 227.846 310.915 227.598C309.551 227.018 308.292 227.304 308.204 227.904C308.134 226.573 307.076 226.263 306.138 226.267Z" fill="black"/>
<path d="M299.138 219.267C298.591 219.269 298.085 219.378 297.838 219.453C297.838 219.453 300.078 219.825 300.265 221.335C298.562 218.938 296.705 221.837 296.705 221.837C297.092 221.738 298.201 221.443 298.941 221.567C299.448 221.652 299.942 222.101 299.92 222.095C298.713 222.385 296.795 227.632 297.121 228.058C297.411 228.383 297.702 228.272 297.992 228.107C298.136 226.995 299.258 222.117 300.631 222.511C300.631 222.511 300.631 222.511 300.631 222.511C300.747 222.549 300.856 222.617 300.862 222.721C300.874 222.918 300.743 223.24 300.774 223.464C300.845 223.983 300.95 224.164 301.101 224.345C301.463 224.147 301.809 223.431 301.881 223.06C302.205 223.198 302.726 223.519 303.151 224.712C303.374 223.594 303.053 222.713 302.001 222.322C302.457 222.129 304.44 223.102 304.682 223.645C304.918 222.667 303.252 221.47 301.864 221.534C302.13 221.466 302.423 221.545 302.701 221.345C303.074 221.077 303.509 220.846 303.915 220.598C302.551 220.018 301.292 220.304 301.204 220.904C301.134 219.573 300.076 219.263 299.138 219.267Z" fill="black"/>
<path d="M383.138 242.267C382.591 242.269 382.085 242.378 381.838 242.453C381.838 242.453 384.078 242.825 384.265 244.335C382.562 241.938 380.705 244.837 380.705 244.837C381.092 244.738 382.201 244.443 382.941 244.567C383.448 244.652 383.942 245.101 383.92 245.095C382.713 245.385 380.795 250.632 381.121 251.058C381.411 251.383 381.702 251.272 381.992 251.107C382.136 249.995 383.258 245.117 384.631 245.511C384.631 245.511 384.631 245.511 384.631 245.511C384.747 245.549 384.856 245.617 384.862 245.721C384.874 245.918 384.743 246.24 384.774 246.464C384.845 246.983 384.95 247.164 385.101 247.345C385.463 247.147 385.809 246.431 385.881 246.06C386.205 246.198 386.726 246.519 387.151 247.712C387.374 246.594 387.053 245.713 386.001 245.322C386.457 245.129 388.44 246.102 388.682 246.645C388.918 245.667 387.252 244.47 385.864 244.534C386.13 244.466 386.423 244.545 386.701 244.345C387.074 244.077 387.509 243.846 387.915 243.598C386.551 243.018 385.292 243.304 385.204 243.904C385.134 242.573 384.076 242.263 383.138 242.267Z" fill="black"/>
<path d="M371.138 235.267C370.591 235.269 370.085 235.378 369.838 235.453C369.838 235.453 372.078 235.825 372.265 237.335C370.562 234.938 368.705 237.837 368.705 237.837C369.092 237.738 370.201 237.443 370.941 237.567C371.448 237.652 371.942 238.101 371.92 238.095C370.713 238.385 368.795 243.632 369.121 244.058C369.411 244.383 369.702 244.272 369.992 244.107C370.136 242.995 371.258 238.117 372.631 238.511C372.631 238.511 372.631 238.511 372.631 238.511C372.747 238.549 372.856 238.617 372.862 238.721C372.874 238.918 372.743 239.24 372.774 239.464C372.845 239.983 372.95 240.164 373.101 240.345C373.463 240.147 373.809 239.431 373.881 239.06C374.205 239.198 374.726 239.519 375.151 240.712C375.374 239.594 375.053 238.713 374.001 238.322C374.457 238.129 376.44 239.102 376.682 239.645C376.918 238.667 375.252 237.47 373.864 237.534C374.13 237.466 374.423 237.545 374.701 237.345C375.074 237.077 375.509 236.846 375.915 236.598C374.551 236.018 373.292 236.304 373.204 236.904C373.134 235.573 372.076 235.263 371.138 235.267Z" fill="black"/>
<path d="M411.138 241.267C410.591 241.269 410.085 241.378 409.838 241.453C409.838 241.453 412.078 241.825 412.265 243.335C410.562 240.938 408.705 243.837 408.705 243.837C409.092 243.738 410.201 243.443 410.941 243.567C411.448 243.652 411.942 244.101 411.92 244.095C410.713 244.385 408.795 249.632 409.121 250.058C409.411 250.383 409.702 250.272 409.992 250.107C410.136 248.995 411.258 244.117 412.631 244.511C412.631 244.511 412.631 244.511 412.631 244.511C412.747 244.549 412.856 244.617 412.862 244.721C412.874 244.918 412.743 245.24 412.774 245.464C412.845 245.983 412.95 246.164 413.101 246.345C413.463 246.147 413.809 245.431 413.881 245.06C414.205 245.198 414.726 245.519 415.151 246.712C415.374 245.594 415.053 244.713 414.001 244.322C414.457 244.129 416.44 245.102 416.682 245.645C416.918 244.667 415.252 243.47 413.864 243.534C414.13 243.466 414.423 243.545 414.701 243.345C415.074 243.077 415.509 242.846 415.915 242.598C414.551 242.018 413.292 242.304 413.204 242.904C413.134 241.573 412.076 241.263 411.138 241.267Z" fill="black"/>
<path d="M396.138 254.267C395.591 254.269 395.085 254.378 394.838 254.453C394.838 254.453 397.078 254.825 397.265 256.335C395.562 253.938 393.705 256.837 393.705 256.837C394.092 256.738 395.201 256.443 395.941 256.567C396.448 256.652 396.942 257.101 396.92 257.095C395.713 257.385 393.795 262.632 394.121 263.058C394.411 263.383 394.702 263.272 394.992 263.107C395.136 261.995 396.258 257.117 397.631 257.511C397.631 257.511 397.631 257.511 397.631 257.511C397.747 257.549 397.856 257.617 397.862 257.721C397.874 257.918 397.743 258.24 397.774 258.464C397.845 258.983 397.95 259.164 398.101 259.345C398.463 259.147 398.809 258.431 398.881 258.06C399.205 258.198 399.726 258.519 400.151 259.712C400.374 258.594 400.053 257.713 399.001 257.322C399.457 257.129 401.44 258.102 401.682 258.645C401.918 257.667 400.252 256.47 398.864 256.534C399.13 256.466 399.423 256.545 399.701 256.345C400.074 256.077 400.509 255.846 400.915 255.598C399.551 255.018 398.292 255.304 398.204 255.904C398.134 254.573 397.076 254.263 396.138 254.267Z" fill="black"/>
<path d="M192.138 157.267C191.591 157.269 191.085 157.378 190.838 157.453C190.838 157.453 193.078 157.825 193.265 159.335C191.562 156.938 189.705 159.837 189.705 159.837C190.092 159.738 191.201 159.443 191.941 159.567C192.448 159.652 192.942 160.101 192.92 160.095C191.713 160.385 189.795 165.632 190.121 166.058C190.411 166.383 190.702 166.272 190.992 166.107C191.136 164.995 192.258 160.117 193.631 160.511C193.631 160.511 193.631 160.511 193.631 160.511C193.747 160.549 193.856 160.617 193.862 160.721C193.874 160.918 193.743 161.24 193.774 161.464C193.845 161.983 193.95 162.164 194.101 162.345C194.463 162.147 194.809 161.431 194.881 161.06C195.205 161.198 195.726 161.519 196.151 162.712C196.374 161.594 196.053 160.713 195.001 160.322C195.457 160.129 197.44 161.102 197.682 161.645C197.918 160.667 196.252 159.47 194.864 159.534C195.13 159.466 195.423 159.545 195.701 159.345C196.074 159.077 196.509 158.846 196.915 158.598C195.551 158.018 194.292 158.304 194.204 158.904C194.134 157.573 193.076 157.263 192.138 157.267Z" fill="black"/>
<path d="M257.138 118.267C256.591 118.269 256.085 118.378 255.838 118.453C255.838 118.453 258.078 118.825 258.265 120.335C256.562 117.938 254.705 120.837 254.705 120.837C255.092 120.738 256.201 120.443 256.941 120.567C257.448 120.652 257.942 121.101 257.92 121.095C256.713 121.385 254.795 126.632 255.121 127.058C255.411 127.383 255.702 127.272 255.992 127.107C256.136 125.995 257.258 121.117 258.631 121.511C258.631 121.511 258.631 121.511 258.631 121.511C258.747 121.549 258.856 121.617 258.862 121.721C258.874 121.918 258.743 122.24 258.774 122.464C258.845 122.983 258.95 123.164 259.101 123.345C259.463 123.147 259.809 122.431 259.881 122.06C260.205 122.198 260.726 122.519 261.151 123.712C261.374 122.594 261.053 121.713 260.001 121.322C260.457 121.129 262.44 122.102 262.682 122.645C262.918 121.667 261.252 120.47 259.864 120.534C260.13 120.466 260.423 120.545 260.701 120.345C261.074 120.077 261.509 119.846 261.915 119.598C260.551 119.018 259.292 119.304 259.204 119.904C259.134 118.573 258.076 118.263 257.138 118.267Z" fill="black"/>
<path d="M229.138 108.267C228.591 108.269 228.085 108.378 227.838 108.453C227.838 108.453 230.078 108.825 230.265 110.335C228.562 107.938 226.705 110.837 226.705 110.837C227.092 110.738 228.201 110.443 228.941 110.567C229.448 110.652 229.942 111.101 229.92 111.095C228.713 111.385 226.795 116.632 227.121 117.058C227.411 117.383 227.702 117.272 227.992 117.107C228.136 115.995 229.258 111.117 230.631 111.511C230.631 111.511 230.631 111.511 230.631 111.511C230.747 111.549 230.856 111.617 230.862 111.721C230.874 111.918 230.743 112.24 230.774 112.464C230.845 112.983 230.95 113.164 231.101 113.345C231.463 113.147 231.809 112.431 231.881 112.06C232.205 112.198 232.726 112.519 233.151 113.712C233.374 112.594 233.053 111.713 232.001 111.322C232.457 111.129 234.44 112.102 234.682 112.645C234.918 111.667 233.252 110.47 231.864 110.534C232.13 110.466 232.423 110.545 232.701 110.345C233.074 110.077 233.509 109.846 233.915 109.598C232.551 109.018 231.292 109.304 231.204 109.904C231.134 108.573 230.076 108.263 229.138 108.267Z" fill="black"/>
<path d="M212.138 102.267C211.591 102.269 211.085 102.378 210.838 102.453C210.838 102.453 213.078 102.825 213.265 104.335C211.562 101.938 209.705 104.837 209.705 104.837C210.092 104.738 211.201 104.443 211.941 104.567C212.448 104.652 212.942 105.101 212.92 105.095C211.713 105.385 209.795 110.632 210.121 111.058C210.411 111.383 210.702 111.272 210.992 111.107C211.136 109.995 212.258 105.117 213.631 105.511C213.631 105.511 213.631 105.511 213.631 105.511C213.747 105.549 213.856 105.617 213.862 105.721C213.874 105.918 213.743 106.24 213.774 106.464C213.845 106.983 213.95 107.164 214.101 107.345C214.463 107.147 214.809 106.431 214.881 106.06C215.205 106.198 215.726 106.519 216.151 107.712C216.374 106.594 216.053 105.713 215.001 105.322C215.457 105.129 217.44 106.102 217.682 106.645C217.918 105.667 216.252 104.47 214.864 104.534C215.13 104.466 215.423 104.545 215.701 104.345C216.074 104.077 216.509 103.846 216.915 103.598C215.551 103.018 214.292 103.304 214.204 103.904C214.134 102.573 213.076 102.263 212.138 102.267Z" fill="black"/>
</svg>
