<svg width="21" height="18" viewBox="0 0 21 18" fill="none" xmlns="http://www.w3.org/2000/svg">
<g id="earth">
<path id="Vector" d="M9.25141 8.71874L8.86983 9.10032C8.70424 9.26591 8.61784 9.4819 8.61784 9.71229C8.61784 9.94268 8.71144 10.1659 8.86983 10.3243L9.25141 10.7058C9.27859 10.7336 9.31109 10.7555 9.34697 10.7704C9.38285 10.7852 9.42137 10.7927 9.4602 10.7922H9.76978C9.92817 10.7922 10.0578 10.9218 10.0578 11.0802V12.6569C10.0578 12.8153 10.1874 12.9449 10.3457 12.9449H10.6553C10.6942 12.9453 10.7327 12.9379 10.7686 12.9231C10.8044 12.9082 10.8369 12.8863 10.8641 12.8585L11.1593 12.5633C11.3753 12.3474 11.4977 12.0522 11.4977 11.7426V10.8498C11.4977 10.8066 11.5049 10.7634 11.5265 10.7202L12.1817 9.40271C12.2033 9.35951 12.2105 9.31631 12.2105 9.27311V8.91313C12.2105 8.75474 12.34 8.62515 12.4984 8.62515H12.6352C12.7936 8.62515 12.9232 8.75474 12.9232 8.91313V9.04992C12.9232 9.20832 13.0528 9.33791 13.2112 9.33791H13.348C13.5064 9.33791 13.636 9.20832 13.636 9.04992V8.91313C13.636 8.75474 13.7656 8.62515 13.924 8.62515H14.0608C14.2191 8.62515 14.3487 8.75474 14.3487 8.91313V9.04992C14.3487 9.20832 14.4783 9.33791 14.6367 9.33791H15.4431C15.5583 9.33791 15.6663 9.26591 15.7095 9.15792L16.343 7.5812C16.3607 7.53753 16.3674 7.4902 16.3625 7.44334C16.3576 7.39649 16.3413 7.35155 16.315 7.31246C16.2887 7.27338 16.2532 7.24134 16.2117 7.21915C16.1701 7.19697 16.1238 7.18532 16.0766 7.18522C15.9183 7.18522 15.7887 7.05563 15.7887 6.89724V6.04048C15.7887 5.88209 15.9183 5.7525 16.0766 5.7525H16.2134C16.3718 5.7525 16.5014 5.88209 16.5014 6.04048V6.11248C16.5014 6.31407 16.6598 6.47246 16.8614 6.47246C17.063 6.47246 17.2214 6.31407 17.2214 6.11248V4.71575C17.2214 4.09659 16.7174 3.59981 16.1054 3.59981H16.0766C15.9183 3.59981 15.7887 3.72941 15.7887 3.8878V4.02459C15.7887 4.18298 15.6591 4.31258 15.5007 4.31258H14.6439C14.4855 4.31258 14.3559 4.18298 14.3559 4.02459C14.3559 3.787 14.1615 3.59261 13.924 3.59261H13.636C13.24 3.59261 12.916 3.9166 12.916 4.31258V4.33417C12.916 4.41337 12.88 4.49257 12.8224 4.55016L11.5625 5.6805C11.5121 5.7309 11.4401 5.7525 11.3681 5.7525H10.3314C10.173 5.7525 10.0434 5.88209 10.0434 6.04048V6.17728C10.0434 6.33567 9.91377 6.46526 9.75538 6.46526H9.61859C9.4602 6.46526 9.3306 6.59485 9.3306 6.75325V7.61C9.3306 7.76839 9.4602 7.89799 9.61859 7.89799H9.75538C9.91377 7.89799 10.0434 8.02758 10.0434 8.18597V8.32276C10.0434 8.48115 9.91377 8.61075 9.75538 8.61075H9.4458L9.42564 8.61939C9.3666 8.64603 9.30324 8.67339 9.25141 8.71874ZM6.09797 13.6721C6.29956 13.6721 6.45795 13.5137 6.45795 13.3121V12.9881C6.45795 12.5201 6.71714 12.1026 7.13472 11.8938L7.5739 11.6706C7.76829 11.5698 7.89788 11.3682 7.89788 11.1522C7.89788 10.929 7.77549 10.7274 7.5739 10.6338L6.73154 10.2163C6.55155 10.1227 6.34996 10.0795 6.14837 10.0795H5.83159C5.80222 10.0796 5.77311 10.074 5.74593 10.0629C5.71875 10.0517 5.69404 10.0354 5.6732 10.0147L4.36287 8.70434C4.34218 8.6835 4.3258 8.65878 4.31468 8.6316C4.30356 8.60442 4.29792 8.57532 4.29807 8.54595V8.14277C4.29807 8.02038 4.39886 7.91958 4.52126 7.91958H4.79484C4.91724 7.91958 5.01803 8.02038 5.01803 8.14277V8.27957C5.01803 8.48115 5.17642 8.63955 5.37801 8.63955C5.5796 8.63955 5.73799 8.48115 5.73799 8.27957V8.14277C5.73799 8.02038 5.83879 7.91958 5.96118 7.91958C6.27796 7.91958 6.58755 7.78999 6.81074 7.5668L7.01952 7.35801C7.10592 7.27162 7.10592 7.12763 7.01952 7.04123L6.52275 6.54446C6.50206 6.52362 6.48569 6.4989 6.47457 6.47172C6.46345 6.44454 6.4578 6.41543 6.45795 6.38607V6.11968C6.45795 5.91809 6.29956 5.7597 6.09797 5.7597C5.89638 5.7597 5.73799 5.91809 5.73799 6.11968C5.73799 6.32127 5.5796 6.47966 5.37801 6.47966C5.17642 6.47966 5.01803 6.32127 5.01803 6.11968V5.98289C5.01803 5.86049 5.11882 5.7597 5.24122 5.7597C5.37081 5.7597 5.47161 5.6517 5.46441 5.52931L5.45001 5.27732C5.44281 5.14773 5.5436 5.04694 5.6732 5.04694H6.23477C6.35716 5.04694 6.45795 4.94614 6.45795 4.82375V4.68696C6.45795 4.48537 6.61635 4.32697 6.81794 4.32697C7.01953 4.32697 7.17792 4.48537 7.17792 4.68696V6.12688C7.17792 6.32847 7.33631 6.48686 7.5379 6.48686C7.73949 6.48686 7.89788 6.32847 7.89788 6.12688V5.86049C7.89788 5.8029 7.91948 5.7453 7.96268 5.7021L8.25786 5.40692C8.48825 5.17653 8.61784 4.86695 8.61784 4.54296C8.61784 4.02459 8.20026 3.60701 7.68189 3.60701H6.52995C6.02598 3.60701 5.5436 3.8158 5.19802 4.18298L4.75164 4.66536C4.52846 4.91014 4.21167 5.04694 3.88049 5.04694H3.80849C3.6861 5.04694 3.58531 4.94614 3.58531 4.82375C3.58531 4.55016 3.36212 4.32697 3.08853 4.32697H2.64216C2.36857 4.32697 2.14538 4.55016 2.14538 4.82375V5.09013C2.14538 5.52211 1.97259 5.93969 1.67021 6.24207L1.49742 6.41486C1.47673 6.4357 1.46035 6.46042 1.44923 6.4876C1.43812 6.51478 1.43247 6.54389 1.43262 6.57326V6.66685C1.43262 6.86844 1.67021 6.96203 1.8142 6.82524L2.72135 5.91809C2.81495 5.8245 2.94454 5.7669 3.08133 5.7669C3.22389 5.7669 3.16773 5.82594 3.07845 5.92169C2.99134 6.01385 2.87254 6.13984 2.87254 6.27807V7.97718C2.87254 8.27165 3.28652 8.55531 3.64578 8.80226C3.81497 8.91745 3.97121 9.02545 4.06768 9.12192L4.96763 10.0219C5.01083 10.0651 5.03243 10.1227 5.03243 10.1803V10.9866C5.03243 11.3322 5.16922 11.6706 5.41401 11.9154L5.68759 12.189C5.73079 12.2322 5.75239 12.2898 5.75239 12.3474V13.3337C5.73799 13.5137 5.90358 13.6721 6.09797 13.6721Z" fill="black"/>
<path id="Vector_2" d="M14.5934 11.0586C14.4566 10.8858 14.3774 10.6698 14.3774 10.4466V10.2955C14.3774 10.1731 14.4782 10.0723 14.6006 10.0579H14.8742C14.9966 10.0579 15.0974 10.1587 15.0974 10.2811C15.0974 10.4898 15.3494 10.5834 15.4862 10.4322L15.7526 10.1371C15.7958 10.0939 15.8534 10.0651 15.9182 10.0651H16.5373C16.9333 10.0651 17.2573 10.3891 17.2573 10.785V11.3898C17.2573 11.5338 17.1277 11.6346 16.9909 11.6058L16.8325 11.5698C16.7489 11.5512 16.6742 11.5047 16.6206 11.4379C16.5669 11.3712 16.5376 11.2882 16.5373 11.2026C16.5373 10.9794 16.3429 10.8066 16.1197 10.8282L16.0118 10.8426C15.9038 10.857 15.8174 10.9506 15.8174 11.0658V11.3322C15.8174 11.433 15.7454 11.5266 15.6446 11.5482C15.3134 11.6274 14.9606 11.505 14.7446 11.2386L14.5934 11.0586ZM15.0974 13.3193C15.0974 13.5209 15.2558 13.6793 15.4574 13.6793H16.8973C17.0989 13.6793 17.2573 13.5209 17.2573 13.3193V12.6353C17.2573 12.5284 17.2148 12.4259 17.1392 12.3502C17.0636 12.2746 16.961 12.2322 16.8541 12.2322H15.695C15.3638 12.2322 15.0974 12.5057 15.0974 12.8369V13.3193Z" fill="black"/>
<path id="Vector_3" d="M0.37438 1.32473L5.01814 0L10.0651 1.43992L15.0976 0L19.7918 1.32473C20.0077 1.38233 20.1589 1.57672 20.1589 1.79991V17.5095C20.1589 17.8263 19.8566 18.0638 19.547 17.9846L15.1048 16.5613L10.0651 17.9991L5.01814 16.5519L0.611968 17.9846C0.53957 18.0028 0.464004 18.0042 0.390976 17.9888C0.317949 17.9734 0.249372 17.9417 0.190427 17.8959C0.131481 17.8501 0.0837091 17.7915 0.0507198 17.7246C0.0177306 17.6577 0.00038719 17.5841 0 17.5095V1.79991C0 1.57672 0.158392 1.38233 0.37438 1.32473ZM10.0651 16.5526L15.1106 15.1199V15.1379L18.4526 16.1559C18.7694 16.2423 19.079 16.0048 19.079 15.6808V2.87985C19.079 2.65666 18.9278 2.46227 18.7118 2.40467L15.0976 1.45432V1.44568L10.0651 2.86113V2.86329L5.01814 1.44856V1.44568L1.40609 2.40467C1.30071 2.43201 1.20734 2.49344 1.14053 2.57939C1.07372 2.66534 1.03723 2.77099 1.03675 2.87985V15.6664C1.03675 15.9904 1.34777 16.2279 1.66671 16.1415L5.01814 15.1264L10.0651 16.5548V16.5526Z" fill="black"/>
</g>
</svg>
