<svg width="1057" height="578" viewBox="0 0 1057 578" fill="none" xmlns="http://www.w3.org/2000/svg">
<path d="M313.476 271.025C314.553 266.181 325.233 261.59 329.129 259.641M359.011 234.028C361.13 234.028 362.75 233.256 364.703 232.605M336.244 248.258C348.86 246.155 358.943 228.336 372.529 228.336C380.452 228.336 388.26 223.505 396.008 222.644C402.851 221.884 413.49 207.683 416.641 202.011C422.296 191.833 428.43 188.493 439.488 188.493C454.046 188.493 462.892 197.889 474.272 205.252C476.456 206.665 478.074 215.622 479.964 218.692C482.39 222.635 485.8 225.704 488.185 229.759C492.903 237.78 509.242 220.011 516.249 218.454C521.873 217.205 520.065 225.67 521.941 229.048C523.954 232.671 525.645 235.634 528.344 239.008C529.954 241.02 531.47 245.059 532.93 246.518C534.805 248.394 541.705 246.248 544.313 247.151C550.119 249.161 551.704 257.258 556.804 259.958C561.31 262.343 567.49 262.789 572.457 264.227C582.108 267.021 590.926 273.23 600.916 276.006C606.173 277.466 614.07 276.278 618.703 278.852C621.251 280.267 626.098 280.151 628.743 280.907C632.945 282.107 629.599 288.219 631.51 291.658C635.197 298.296 635.311 305.616 639.02 312.291C642.646 318.819 649.297 325.243 649.297 332.529V347.154C649.297 353.079 638.096 354.102 633.644 355.692C625.257 358.687 615.078 357.073 607.319 361.384C603.689 363.401 598.61 365.341 595.54 368.103C592.893 370.486 592.831 374.628 591.271 377.748C586.83 386.63 576.4 389.504 566.686 390.476C550.022 392.142 531.847 391.515 515.538 395.14C503.769 397.755 487.773 395.874 478.224 404.468C458.053 422.622 430.434 403.361 408.104 403.361C399.875 403.361 388.676 405.527 382.095 410.792C379.536 412.84 373.794 414.566 370.395 414.745C357.343 415.432 343.996 413.322 330.868 413.322C315.445 413.322 300.474 414.026 285.254 416.88C278.549 418.137 265.736 418.278 260.115 422.65C256.986 425.084 255.395 429.409 251.656 430.477C247.722 431.601 240.813 435.824 237.347 438.224C230.615 442.885 219.913 446.518 212.129 449.213C204.748 451.768 200.446 457.708 193.947 460.596C176.594 468.309 158.942 475.615 141.455 482.415C132.483 485.904 124.765 486.224 116.395 490.874C114.687 491.823 108.877 492.906 107.146 493.008C102.544 493.279 103.323 495.213 100.347 497.594C97.3659 499.978 94.162 503.937 90.07 504.392C87.9109 504.632 80.8022 507.275 80.1092 508.661M75.8403 505.815C75.8403 496.188 83.2318 480.224 93.5484 477.277C101.387 475.037 108.637 464.575 114.972 459.648C119.856 455.849 140 452.24 141.218 446.762C142.842 439.454 146.82 433.623 149.835 426.84C152.563 420.701 155.895 420.437 161.93 420.437C166.884 420.437 171.926 420.712 176.871 420.437C180.836 420.217 188.934 419.702 192.524 417.907C197.036 415.651 199.953 413.434 203.591 410.16C207.224 406.89 211.725 405.109 215.291 401.938C219.237 398.431 227.315 395.698 229.205 390.238C230.817 385.58 229.521 378.407 229.521 373.479C229.521 364.169 220.034 357.826 211.022 357.826C207.703 357.826 204.386 357.683 201.117 357.659M201.117 357.659C194.36 357.611 187.806 358.076 181.852 361.384C180.772 361.984 179.535 362.678 178.224 363.354M201.117 357.659C196.089 359.382 191.055 360.672 188.966 360.672C185.362 360.672 182.129 362.748 178.224 363.354M201.117 357.659C206.77 355.722 212.416 353.238 213.868 351.423C215.447 349.45 222.714 347.47 225.252 346.126C230.422 343.389 235.748 340.915 239.482 336.482C250.774 323.072 264.356 310.864 276.163 297.745C281.536 291.775 291.085 283.316 299.247 282.409C311.153 281.086 319.092 266.083 329.129 261.064M178.224 363.354C175.216 364.907 171.819 366.364 169.045 366.364C164.794 366.364 157.706 368.621 161.219 364.23C163.011 361.988 173.278 363.518 176.16 363.518C176.871 363.518 177.557 363.458 178.224 363.354ZM121.375 411.899V426.84C121.375 434.151 115.929 430.13 111.415 432.137C108.331 433.507 90.1225 454.693 87.2241 448.896M117.106 413.322C103.498 413.866 96.651 436.179 90.07 446.05M40.2661 511.507V532.14C40.2661 537.078 36.1722 538.193 34.5742 541.389M30.3053 541.389C25.1624 541.961 17.993 549.145 13.2297 551.666C9.99823 553.377 3.39423 555.368 1.84595 558.465C1.84595 551.983 7.67615 547.75 11.0162 542.891C14.4272 537.93 17.3529 533.186 20.3445 527.95C22.4923 524.192 26.5035 520.951 30.3053 518.938C34.0739 516.943 35.1184 511.946 38.8431 510.084M645.028 363.518C633.617 363.518 623.142 369.06 612.932 371.977C609.296 373.016 602.061 375.25 599.493 378.459C595.931 382.912 595.174 388.391 591.271 392.294C583.137 400.429 573.378 407.979 561.784 410.555C557.022 411.614 550.571 414.745 546.132 414.745C542.38 414.745 530.715 416.548 528.028 418.698C524.289 421.689 518.281 422.167 514.431 426.445C510.367 430.961 504.05 430.242 499.174 434.034C492.307 439.375 493.87 442.683 501.308 445.339C504.379 446.436 516.642 449.436 519.49 447.157C523.211 444.18 530.538 444.627 535.459 444.627C542.275 444.627 548.176 441.781 554.669 441.781H576.725C585.683 441.781 573.171 457.422 572.536 459.648C570.788 465.764 583.844 463.131 586.686 466.683C590.172 471.04 594.255 474.721 597.754 479.095C601.608 483.913 591.379 490.961 588.109 492.692C580.146 496.908 593.332 502.038 595.303 503.681C601.036 508.458 614.672 505.815 621.391 505.815C631.294 505.815 640.044 505.882 649.771 508.661C660.617 511.76 674.061 516.678 684.239 521.468C691.423 524.848 699.765 526.738 706.927 530.717C715.21 535.319 732.63 544.415 733.252 555.619C733.592 561.742 733.252 567.984 733.252 574.118C733.252 578.647 735.678 573.688 736.968 571.825C741.205 565.704 747.231 561.562 752.462 556.331C761.636 547.156 776.905 540.645 788.748 535.381C792.229 533.834 795.744 532.325 799.42 531.508C805.061 530.254 813.277 536.215 817.682 538.543C826.862 543.396 834.976 549.742 843.848 555.066C845.721 556.189 864.184 569.849 866.695 565.58C868.363 562.743 869.77 559.083 872.703 557.358C885.858 549.62 896.837 545.658 912.625 545.658C917.363 545.658 924.941 548.174 928.515 551.034C930.253 552.424 936.708 551.35 938.792 551.35C947.436 551.35 951.657 543.102 959.188 542.812C966.704 542.523 973.567 544.235 980.849 544.235C988.845 544.235 993.591 539.348 999.98 535.697C1004.86 532.907 1010.08 532.937 1015.63 531.349C1021.11 529.784 1029.32 527.248 1023.54 521.468C1009.12 507.045 1042.51 510.613 1049.86 506.527C1050.96 505.918 1056.33 503.475 1054.68 502.337C1048.27 497.896 1040.23 495.744 1033.34 492.297C1029.03 490.141 1025.08 487.552 1020.69 485.577C1015.42 483.206 1008.85 483.366 1003.3 481.308C994.123 477.91 988.864 468.374 979.742 464.865C970.833 461.439 961.978 455.838 956.026 448.185C945.425 434.556 932.802 420.618 918.95 409.844C913.341 405.482 906.985 402.277 901.874 398.302C898.355 395.565 891.32 389.68 886.933 389.132C884.305 388.803 879.665 385.374 877.051 384.23C873.831 382.821 867.003 383.718 864.481 381.701C860.148 378.234 853.065 378.664 847.801 376.325C840.637 373.141 833.111 370.773 826.457 367.076C821.613 364.385 811.668 356.728 805.823 356.403C791.89 355.629 779.609 355.927 766.613 352.214C760.436 350.449 753.056 353.452 746.77 352.055C737.232 349.936 727.659 347.866 717.599 347.866C703.258 347.866 695.111 351.236 691.907 365.653L691.898 365.693C691.1 369.283 688.903 379.171 684.16 379.171C678.446 379.171 670.117 377.515 664.95 375.218C659.676 372.874 652.638 373.519 647.242 371.977C641.971 370.471 636.923 367.787 630.798 367.787M635.067 272.448C635.067 278.785 638.09 286.222 642.498 290.631C646.691 294.823 649.337 299.612 652.854 303.833C657.308 309.176 656.985 316.426 659.574 322.252C662.762 329.426 663.527 336.424 663.527 344.308C663.527 350.666 665.693 356.356 670.325 360.988C672.369 363.032 674.267 364.249 676.966 365.02C681.38 366.281 679.313 368.963 680.681 362.807C683.918 348.24 701.56 340.758 714.042 337.984C720.644 336.517 728.471 335.059 735.386 335.059C739.022 335.059 741.42 333.825 744.636 333.636C748.348 333.417 749.832 337.905 754.597 337.905C764.695 337.905 774.665 340.751 785.111 340.751C793.469 340.751 803.953 345.943 812.938 346.443C824.211 347.069 835.002 350.162 844.955 355.692C848.715 357.781 852.695 359.113 856.734 360.356C859.667 361.259 864.196 363.518 867.011 363.518C874.15 363.518 882.216 367.787 889.067 367.787L889.386 367.787C894.32 367.785 906.216 367.781 909.384 370.949C914.524 376.089 921.036 373.817 926.776 373.479C930.733 373.246 921.741 360.48 921.163 358.459C918.423 348.867 914.391 345.926 906.538 339.644C905.315 338.666 897.643 335.703 899.186 332.924C901.472 328.81 905.352 325.525 907.566 321.541C909.359 318.313 912.169 315.631 913.653 312.291C914.885 309.519 907.814 305.471 905.431 304.07C895.199 298.051 912.874 290.953 918.95 289.603C925.215 288.211 930.941 284.317 934.997 279.247C943.643 268.44 922.903 259.378 914.76 253.95C911.375 251.693 897.928 246.544 896.973 243.198C896.102 240.151 898.012 233.039 898.633 230.075C900.109 223.023 907.205 214.959 913.337 211.893C915.624 210.749 922.447 208.134 923.93 206.28C925.891 203.829 930.855 205.45 932.468 203.434C934.374 201.051 939.655 201.454 942.429 201.3C947.148 201.038 951.965 197.583 956.658 197.031C962.983 196.287 969.503 194.255 975.868 192.841C982.568 191.352 988.292 191.93 993.972 187.386C1000.89 181.853 1014.89 187.07 1022.83 187.07C1030.1 187.07 1036.7 185.647 1043.46 185.647M901.162 187.07C914.111 187.07 928.242 188.814 941.006 186.991C949.273 185.81 958.689 186.345 966.619 183.513C982.526 177.832 997.999 175.686 1015 175.686M896.894 184.224C891.774 183.712 883.851 176.376 879.818 172.919C877.583 171.004 874.337 168.48 871.596 167.465C870.005 166.875 867.21 167.876 865.904 166.832C861.165 163.04 853.154 160.065 847.09 157.899C835.515 153.765 821.17 155.765 808.986 155.765C803.616 155.765 799.557 153.729 794.44 152.998C790.314 152.408 786.227 148.65 782.344 148.65C773.442 148.65 765.1 142.013 756.02 141.535C749.089 141.17 739.807 140.319 733.252 137.978C729.503 136.639 724.557 138.563 721.552 136.159C719.262 134.327 711.854 133.152 709.062 132.997C701.225 132.562 693.198 130.151 685.583 130.151C676.174 130.151 667.27 127.305 657.835 127.305H630.166C622.16 127.305 614.715 125.882 606.608 125.882C597.349 125.882 612.323 132.012 613.644 136.634C615.371 142.68 598.607 144.381 595.224 144.381C588.067 144.381 581.631 147.006 574.591 148.571C567.283 150.195 559.941 148.208 552.851 150.389C548.972 151.583 545.42 150.366 545.42 155.053C545.42 159.491 541.724 160.034 537.594 160.034C529.944 160.034 526.927 162.516 522.653 167.86C518.472 173.086 503.18 172.84 497.039 172.84C489.984 172.84 482.66 172.375 476.327 174.184C470.511 175.846 464.995 179.247 458.619 179.955C451.222 180.777 459.124 181.378 462.176 181.378C466.014 181.378 468.299 182.801 472.137 182.801C475.009 182.801 479.581 185.433 479.964 188.493C480.124 189.775 480.948 197.194 481.703 198.138C483.439 200.308 482.672 205.174 484.944 206.992C486.642 208.35 489.428 212.723 490.003 214.739C490.803 217.539 490.802 221.81 494.193 220.115C497.324 218.549 501.913 216.469 504.47 214.423C507.463 212.028 520.384 207.923 522.653 211.893C525.526 216.921 530.216 220.063 532.93 225.49C534.558 228.746 536.564 231.771 538.305 234.819C540.514 238.684 545.36 235.942 548.898 236.953C554.605 238.583 557.021 247.564 562.496 249.997C573.504 254.889 586.702 263.91 599.493 263.91C612.943 263.91 626.759 272.525 639.336 276.717M471.426 93.1541H450.793C443.684 93.1541 442.932 97.0545 437.986 100.901C432.769 104.959 424.072 108.808 420.515 114.499C418.341 117.977 416.281 119.533 412.452 117.345C410.252 116.088 401.588 114.986 403.835 110.941C407.658 104.059 414.735 98.655 419.566 92.4426C424.433 86.185 434.85 74.6555 442.966 74.6555C449.199 74.6555 464.653 82.351 467.078 73.8649C468.117 70.2271 479.489 80.3473 484.232 80.3473C490.318 80.3473 511.526 79.4382 514.115 84.6162M472.849 90.3081C486.288 90.3081 504.966 92.0364 516.961 86.0392M452.927 57.5798C462.743 57.5798 477.497 54.7868 486.367 59.7143C494.33 64.1381 499.014 64.6947 508.423 64.6947C518.013 64.6947 526.238 63.2451 535.459 61.9278C543.345 60.8013 548.557 54.7339 556.804 54.7339M458.619 51.888C442.756 51.888 490.956 47.609 506.209 51.967C522.981 56.7588 542.03 49.042 559.65 49.042M491.347 26.2745C500.936 22.8225 509.906 16.8352 519.49 12.9144C525.155 10.597 531.175 9.10272 536.882 7.06444C543.645 4.64905 554.035 6.35295 561.073 6.35295H608.031C615.055 6.35295 622.443 6.8091 628.743 5.00904C634.04 3.49548 642.369 2.08405 647.874 2.08405C654.561 2.08405 658.613 3.22118 664.317 4.85093C671.437 6.88527 679.257 5.43031 686.294 7.77592M492.77 30.5434C492.77 38.6787 501.644 33.3894 507 33.3894C514.032 33.3894 520.711 31.9664 527.633 31.9664C533.157 31.9664 537.825 33.3894 543.286 33.3894C548.829 33.3894 553.714 30.5434 558.938 30.5434C564.555 30.5434 569.339 31.9664 574.512 31.9664C581.378 31.9664 585.721 30.9208 591.746 29.1995C596.398 27.8703 600.71 27.6975 605.896 27.6975C608.431 27.6975 617.937 27.9849 619.415 29.8319C620.394 31.0557 622.95 30.8106 624.395 31.9664C626.275 33.4705 626.732 35.6351 628.269 37.342C632.289 41.8092 630.754 45.1113 636.49 42.2434C644.812 38.0826 652.186 31.6285 660.681 27.3813C665.744 24.8497 671.433 26.7133 676.333 24.5353C680.097 22.8628 687.906 22.0056 691.986 22.0056C702.76 22.0056 713.132 17.7367 723.291 17.7367M723.291 14.8908C704.083 14.8908 687.051 7.77591 667.796 7.77591M232.437 315.65H245.443M252.668 304.09H255.558M267.119 288.194H274.344M246.888 288.194H252.668M230.992 450.042H238.217M109.606 504.954H111.051M141.398 491.949H154.403M170.299 487.614H174.634M191.975 477.498H196.31M223.767 471.718H230.992M280.124 432.701H284.459M394.285 197.155H404.4M389.949 211.605H398.62M348.042 231.836H356.713M319.141 246.287H336.482M394.285 101.78H402.955M411.625 88.7747H415.961M424.631 77.2141H423.186M900.059 226.056H915.954M901.504 237.617H905.839M915.954 243.397H917.399M941.966 267.963H944.856M934.74 288.194H940.521M917.399 314.205H920.29M927.515 328.656H928.96M927.515 341.662H934.74M936.185 354.667H943.411M1015.66 480.388H1021.44M986.763 470.273H989.653M965.087 447.152H969.422M944.856 432.701H953.526M924.625 403.8H927.515M559.022 460.157H563.358M582.144 477.498H585.034M661.622 523.74H671.738M681.853 533.856H697.749M661.622 535.301H665.958M626.941 522.295H635.611M346.597 496.284H361.048M369.719 496.284H372.609M387.059 497.729H388.504M330.702 487.614H335.037M350.933 486.168H355.268M344.198 386.899C346.102 385.206 347.944 383.503 349.736 381.711C351.763 379.684 354.494 378.225 355.836 375.541C357.155 372.903 358.267 370.156 359.657 367.653C360.516 366.108 362.375 361.719 363.759 361.027C363.903 362.319 366.769 365.833 367.861 366.706C370.904 369.141 372.893 372.724 376.064 375.19C379.022 377.491 387.107 379.725 387.107 384.375M361.866 366.075C361.866 368.368 363.29 370.857 364.25 373.017C365.278 375.33 364.255 378.494 365.652 380.589M378.272 374.279C380.084 371.149 383.122 368.957 384.898 365.76C385.532 364.619 386.278 360.344 387.107 359.905C389.524 358.625 392.522 361.658 394.994 361.658C396.662 361.658 399.462 361.12 400.989 361.799C404.058 363.162 407.243 365.043 409.823 367.337C411.972 369.247 413.849 370.888 415.502 373.367C416.477 374.829 419.289 377.534 419.289 379.327M387.738 362.92C392.139 363.409 393.417 368.253 393.417 371.755M414.871 373.017C414.453 368.828 417.723 367.252 419.604 363.867C420.739 361.825 422.171 359.983 424.021 358.503C427.648 355.602 431.431 361.301 433.311 363.832C435.524 366.811 438.512 369.817 440.112 373.017M437.588 378.696C437.588 376.017 440.963 372.616 441.865 370.002C442.231 368.94 443.703 363.34 445.791 364.323C447.33 365.047 448.407 366.87 449.647 367.933C451.329 369.374 453.489 370.267 455.116 371.895C456.62 373.398 456.68 377.199 458.412 378.065M781.764 493.514C783.241 492.038 793.926 470.58 797.029 473.372C799.759 475.829 802.989 480.515 804.707 483.759C805.695 485.626 804.714 487.637 805.52 489.45C806.136 490.837 806.965 492.87 806.965 494.327M805.339 484.572C806.108 477.65 814.213 486.91 816.358 488.276C819.809 490.472 825.662 496.433 825.662 500.831M821.597 492.701C821.597 489.977 821.687 488.232 822.817 485.746C824.345 482.384 823.806 481.398 826.113 485.024C827.506 487.212 829.12 488.735 830.359 491.076C831.522 493.273 833.746 493.38 834.604 495.953M782.577 485.385C782.205 482.034 779.326 479.38 779.326 476.037C779.326 471.568 774.974 478.439 772.822 473.598C771.367 470.323 768.432 467.727 766.726 464.656C765.78 462.954 762.854 456.505 761.035 459.778C758.375 464.567 754.274 474.817 747.622 474.817C743.287 474.817 741.497 478.039 739.676 481.317L739.674 481.321C737.442 485.338 734.65 488.991 732.177 492.701M760.629 463.437C760.629 461.117 760.5 468.227 761.442 470.346C762.519 472.771 763.853 474.429 765.687 476.262C768.69 479.266 762.039 488.256 760.629 491.076M819.971 469.94C822.534 469.619 825.401 464.161 825.662 461.811C825.869 459.945 827.288 459.077 827.288 456.933C827.288 455.695 827.459 452.29 828.146 453.32C830.038 456.159 830.444 459.973 832.165 462.985C833.819 465.879 836.026 468.822 837.855 471.566M834.604 465.875C833.784 465.773 836.947 458.161 837.855 456.572C838.949 454.659 843.718 452.876 844.314 450.791C845.209 447.659 847.409 446.532 847.61 443.114C847.795 439.983 850.678 446.543 851.494 447.359C853.432 449.297 855.633 451.157 857.772 452.869C859.86 454.539 863.067 453.696 864.682 455.714C866.694 458.229 868.171 458.673 869.74 461.811C871.249 464.828 874.437 469.964 874.437 473.191M848.423 447.991C848.423 450.201 847.76 453.788 848.83 455.714C849.708 457.295 851.008 458.584 851.856 460.185C853.732 463.73 857.365 468.277 857.365 472.379M873.624 465.062C873.624 455.968 886.26 468.017 887.443 471.566M885.004 469.94C885.544 469.82 888.688 467.571 889.069 467.095C890.074 465.838 892.228 467.306 893.314 467.682C897.212 469.031 901.003 469.81 904.514 471.566M693.97 325.241C694.881 315.223 703.789 308.403 707.97 300.041C708.744 298.494 710.228 297.746 710.228 295.976C710.228 293.351 711.042 297.223 711.673 298.415C712.673 300.303 715.78 306.696 718.357 305.551C721.295 304.245 723.071 300.664 726.486 300.854C729.559 301.025 732.466 305.569 734.435 307.538C736.607 309.71 739.669 311.725 742.112 313.68C744.813 315.84 744.789 322.199 747.622 323.616M725.674 302.48C725.674 305.831 727.709 307.405 729.919 309.615C731.785 311.482 732.99 316.047 732.99 318.738M747.622 316.299C747.622 312.898 749.991 306.163 754.532 309.796C757.206 311.936 759.968 317.417 761.442 320.364M761.442 315.486C760.27 315.319 764.575 307.488 764.693 306.544C765.232 302.236 769.252 308.213 770.203 309.164C771.24 310.201 771.564 311.338 772.642 312.415C773.647 313.421 775.577 313.386 776.887 314.041C779.817 315.506 779.975 321.501 782.577 322.803M719.983 293.538C720.311 290.257 723.673 287.783 724.048 284.596C724.217 283.154 725.321 280.677 726.08 279.312C727.051 277.565 727.028 274.4 728.925 273.396C730.855 272.374 733.627 273.472 734.615 275.202C739.18 283.19 749.592 288.067 752.5 296.789M728.112 276.467C728.112 279.418 728.905 282.984 731.725 284.596C735.049 286.495 734.616 290.255 734.616 293.538M751.687 290.286C751.687 287.835 751.116 285.257 752.951 283.422C754.617 281.756 757.13 281.804 758.19 284.189C759.036 286.092 761.833 287.72 763.248 289.293C764.772 290.985 765.288 295.055 767.132 295.977M768.758 295.164C768.758 287.846 773.547 295.932 776.887 297.602M708.602 284.596C706.554 284.368 703.491 278.695 702.957 276.828C701.984 273.422 700.23 271.346 697.628 268.744C695.16 266.276 692.318 264.444 690.086 261.654C689.408 260.806 690.173 258.583 688.279 258.583C686.638 258.583 685.853 260.648 684.847 261.654C681.189 265.312 679.789 272.176 677.26 276.873C675.493 280.154 673.038 282.854 670.576 285.589C667.646 288.844 667.549 294.353 666.331 298.415M683.402 263.46C683.402 267.52 684.216 270.418 686.021 274.028C687.39 276.766 690.059 278.904 691.351 281.344C693.932 286.221 693.97 293.785 693.97 299.228M703.725 294.351C703.725 290.366 705.456 287.106 707.789 284.189C711.117 280.03 714.015 289.731 715.106 291.912M863.588 329.627C863.588 325.411 865.633 322.094 868.142 318.867C869.181 317.532 869.842 310.914 871.216 312.207C875.909 316.624 884.317 321.9 887.156 327.577M868.711 314.256C867.566 315.729 871.7 319.765 872.81 321.429M879.983 316.306C879.983 312.25 880.494 311.057 882.032 307.596C882.367 306.843 884.725 301.391 885.106 301.391C890.062 301.391 895.475 312.268 899.452 314.256M884.082 304.01V304.015C884.082 306.471 884.082 308.108 885.106 310.158M891.254 302.985C891.254 300.184 892.193 289.762 895.922 288.696C896.689 288.477 902.561 295.83 904.575 296.837M894.328 292.738C894.328 294.639 895.573 296.251 896.378 297.862M207.794 451.563C212.613 451.563 214.761 447.465 219.578 447.465C222.472 447.465 226.773 443.742 228.743 441.772C233.96 436.555 237.743 426.512 244.113 422.872C246.814 421.329 248.089 418.088 250.033 415.927C252.394 413.305 255.899 412.67 258.231 410.804C260.089 409.317 267.899 408.527 270.299 408.527C274.2 408.527 277.433 407.502 281.571 407.502C285.126 407.502 289.234 406.411 292.387 405.51C296.741 404.266 301.566 406.478 305.651 406.478H342.027C346.114 406.478 349.594 409.552 353.298 409.552C357.215 409.552 360.146 412.426 363.545 412.626C366.064 412.774 372.738 412.683 373.792 410.576M245.707 421.848V425.946M253.904 416.724V423.897M262.102 411.601V416.724M280.546 410.576V411.601M292.842 409.552V411.601M310.262 408.527V409.552M580.095 445.027C580.095 442.556 582.26 440.843 581.44 437.971C580.904 436.097 576.578 435.89 575.069 435.89C572.451 435.89 569.168 435.349 566.618 435.915C564.887 436.3 563.205 436.804 561.364 436.804C559.843 436.804 558.488 437.717 557.024 437.717C553.976 437.717 550.958 438.016 548.116 438.174C545.527 438.318 542.989 440.194 540.552 440.89C537.667 441.714 535.207 443.199 532.126 443.199C529.788 443.199 527.667 445.484 525.274 445.484M555.425 437.717C555.425 438.526 555.147 439.634 555.882 440.001M570.958 437.717V438.631M846.728 492.14H858.637C861.008 492.14 866.502 495.423 868.318 496.876C875.244 502.417 888.41 503.736 896.872 500.915" stroke="black" stroke-width="3" stroke-linecap="round"/>
</svg>
