<svg width="48" height="48" viewBox="0 0 48 48" fill="none" xmlns="http://www.w3.org/2000/svg">
<path d="M24 4C18.486 4 14 8.486 14 14V20H12C10.9391 20 9.92172 20.4214 9.17157 21.1716C8.42143 21.9217 8 22.9391 8 24V40C8 41.0609 8.42143 42.0783 9.17157 42.8284C9.92172 43.5786 10.9391 44 12 44H36C37.0609 44 38.0783 43.5786 38.8284 42.8284C39.5786 42.0783 40 41.0609 40 40V24C40 22.9391 39.5786 21.9217 38.8284 21.1716C38.0783 20.4214 37.0609 20 36 20H34V14C34 8.486 29.514 4 24 4ZM18 14C18 10.692 20.692 8 24 8C27.308 8 30 10.692 30 14V20H18V14ZM26 35.446V40H22V35.446C21.3008 35.0456 20.7393 34.4427 20.3897 33.7167C20.04 32.9908 19.9186 32.1759 20.0414 31.3795C20.1642 30.5832 20.5254 29.8428 21.0775 29.2559C21.6296 28.669 22.3466 28.2632 23.134 28.092C23.7188 27.9627 24.3252 27.9663 24.9085 28.1026C25.4917 28.2388 26.037 28.5043 26.504 28.8793C26.971 29.2544 27.3478 29.7295 27.6067 30.2696C27.8657 30.8097 28.0001 31.401 28 32C27.9989 32.6995 27.8134 33.3863 27.4623 33.9913C27.1111 34.5963 26.6068 35.098 26 35.446Z" fill="black"/>
</svg>
