<svg width="26" height="23" viewBox="0 0 26 23" xmlns="http://www.w3.org/2000/svg">
<path d="M11.9708 8.625C13.1174 8.625 14.2188 8.94394 15.1667 9.51894V23H6.50001V15.1701L4.08056 19.24C3.57501 20.0936 2.46459 20.3766 1.60695 19.8734C0.749314 19.3703 0.464939 18.2652 0.970494 17.4117L4.41008 11.6258C5.51598 9.76602 7.52466 8.625 9.69584 8.625H11.9708ZM14.4445 3.59375C14.4445 5.5793 12.8285 7.1875 10.8333 7.1875C8.8382 7.1875 7.22223 5.5793 7.22223 3.59375C7.22223 1.6082 8.8382 0 10.8333 0C12.8285 0 14.4445 1.6082 14.4445 3.59375ZM20.2222 0C20.6194 0 20.9445 0.323437 20.9445 0.71875V5.94316C21.3778 6.19023 21.6667 6.65742 21.6667 7.1875V12.0975L22.3889 11.8594V9.34375C22.3889 8.94844 22.7139 8.625 23.1111 8.625H23.8333C24.2306 8.625 24.5556 8.94844 24.5556 9.34375V13.1396C24.5556 13.4496 24.357 13.7236 24.0635 13.8225L21.6667 14.6131V15.8125H23.8333C24.2306 15.8125 24.5556 16.1359 24.5556 16.5312V17.25C24.5556 17.6453 24.2306 17.9688 23.8333 17.9688H21.8472L22.8854 22.1061C22.9983 22.5598 22.6552 23 22.1858 23H19.5C19.1028 23 18.7778 22.6766 18.7778 22.2812V17.9688H18.0556C17.2566 17.9688 16.6111 17.3264 16.6111 16.5312V10.0625C16.6111 9.26738 17.2566 8.625 18.0556 8.625V7.1875C18.0556 6.65742 18.3444 6.19023 18.7778 5.94316V1.4375C18.3806 1.4375 18.0556 1.11406 18.0556 0.71875C18.0556 0.323437 18.3806 0 18.7778 0H20.2222Z"/>
</svg>
