<svg width="48" height="48" viewBox="0 0 48 48" fill="none" xmlns="http://www.w3.org/2000/svg">
<g clip-path="url(#clip0_185_63)">
<path d="M47.562 0.438007C47.7697 0.646003 47.9117 0.91043 47.9703 1.19844C48.029 1.48645 48.0018 1.78535 47.892 2.05801L30.435 45.699C30.2812 46.0833 30.0243 46.4178 29.6926 46.6655C29.3609 46.9132 28.9673 47.0647 28.5552 47.1031C28.143 47.1416 27.7282 47.0656 27.3564 46.8835C26.9846 46.7014 26.6703 46.4202 26.448 46.071L16.914 31.086L1.929 21.552C1.57895 21.33 1.29706 21.0155 1.11441 20.6434C0.931765 20.2713 0.855474 19.8559 0.893956 19.4432C0.932437 19.0304 1.0842 18.6363 1.33248 18.3044C1.58077 17.9724 1.91594 17.7155 2.301 17.562L45.942 0.111007C46.2147 0.00124358 46.5136 -0.0259956 46.8016 0.0326729C47.0896 0.0913415 47.354 0.233332 47.562 0.441007V0.438007ZM19.908 30.21L28.191 43.224L42.39 7.72801L19.908 30.21ZM40.269 5.60701L4.773 19.806L17.79 28.086L40.272 5.60701H40.269Z" fill="black"/>
</g>
<defs>
<clipPath id="clip0_185_63">
<rect width="48" height="48" fill="white"/>
</clipPath>
</defs>
</svg>
